<svg xmlns="http://www.w3.org/2000/svg" viewBox="0 0 1167 1786" height="1786" xmlns:xlink="http://www.w3.org/1999/xlink" width="1167"><defs/><g transform="translate(-2948.52,-1132.70)"><g id="shape1" transform="translate(3715.520000,2626.701000)"><path d="M329.0,291.0L329.0,.0L.0,.0L.0,291.0L329.0,291.0z" stroke-width="1" fill-rule="nonzero" fill="#ffffff" stroke="#101843"/><text xml:space="preserve" style="fill:#191919;font-family:微软雅黑;font-size:15.00pt;font-weight:bold"><tspan x="144.5" y="281.0">输出</tspan></text></g><g id="shape2" transform="translate(2949.520000,1387.701000)"><path d="M304.0,1041.5L304.0,.0L.0,.0L.0,1041.5L304.0,1041.5z" stroke-width="1" fill-rule="nonzero" fill="#ffffff" stroke="#101843"/><text xml:space="preserve" style="fill:#191919;font-family:微软雅黑;font-size:16.00pt;font-weight:bold"><tspan x="131.0" y="26.0">输入</tspan></text></g><g id="shape3" transform="translate(3292.270000,1638.701000)"><path d="M822.0,474.0L822.0,.0L.0,.0L.0,474.0L822.0,474.0z" stroke-width="1" fill-rule="nonzero" fill="#ffffff" stroke="#101843"/><text xml:space="preserve" style="fill:#191919;font-family:微软雅黑;font-size:10.00pt"><tspan x="557.0" y="19.0">         FlightModeManager::switchTask       </tspan></text></g><g id="shape4" transform="translate(3312.270000,1514.701000)"><path d="M401.0,85.0L401.0,7.0C401.0,3.1,397.9,.0,394.0,.0L7.0,.0C3.1,.0,.0,3.1,.0,7.0L.0,85.0C.0,88.9,3.1,92.0,7.0,92.0L394.0,92.0C397.9,92.0,401.0,88.9,401.0,85.0z" stroke-width="1" fill-rule="nonzero" fill="#e6dfd0" stroke="#101843"/><text xml:space="preserve" style="fill:#191919;font-family:微软雅黑;font-size:10.00pt"><tspan x="135.5" y="42.0">判断是否具备切换条件</tspan><tspan x="19.5" y="61.0">_vehicle_control_mode_sub.get().flag_control_auto_enabled</tspan></text></g><g id="shape5" transform="translate(3312.270000,1387.701000)"><path d="M401.0,85.0L401.0,7.0C401.0,3.1,397.9,.0,394.0,.0L7.0,.0C3.1,.0,.0,3.1,.0,7.0L.0,85.0C.0,88.9,3.1,92.0,7.0,92.0L394.0,92.0C397.9,92.0,401.0,88.9,401.0,85.0z" stroke-width="1" fill-rule="nonzero" fill="#e6dfd0" stroke="#101843"/><text xml:space="preserve" style="fill:#191919;font-family:微软雅黑;font-size:10.00pt"><tspan x="161.5" y="42.0">开始飞行任务</tspan><tspan x="148.0" y="61.0">start_flight_task()</tspan></text></g><g id="shape6" transform="translate(3312.270000,1663.701000)"><path d="M401.0,85.0L401.0,7.0C401.0,3.1,397.9,.0,394.0,.0L7.0,.0C3.1,.0,.0,3.1,.0,7.0L.0,85.0C.0,88.9,3.1,92.0,7.0,92.0L394.0,92.0C397.9,92.0,401.0,88.9,401.0,85.0z" stroke-width="1" fill-rule="nonzero" fill="#e6dfd0" stroke="#101843"/><text xml:space="preserve" style="fill:#191919;font-family:微软雅黑;font-size:10.00pt"><tspan x="106.5" y="42.0">切换至AutoLineSmoothVel任务</tspan><tspan x="51.5" y="61.0">switchTask(FlightTaskIndex::AutoLineSmoothVel)</tspan></text></g><g id="shape7" transform="translate(3209.020000,1492.201000)"><path stroke-dasharray="11,5,2.5,5" stroke-width="1" d="M.0,.0C14.2,6.9,28.5,13.8,34.5,24.5C40.5,35.2,38.4,49.5,48.5,57.5C57.9,64.9,77.9,66.7,98.6,68.2" fill="none" stroke="#191919"/><path stroke-linecap="round" stroke-width="1" d="M97.5,65.1L103.3,68.5L97.1,71.1L97.5,65.1" fill="#191919" stroke="#191919"/></g><g id="shape8" transform="translate(2996.020000,1436.701000)"><path d="M213.0,104.0L213.0,7.0C213.0,3.1,209.9,.0,206.0,.0L7.0,.0C3.1,.0,.0,3.1,.0,7.0L.0,104.0C.0,107.9,3.1,111.0,7.0,111.0L206.0,111.0C209.9,111.0,213.0,107.9,213.0,104.0z" stroke-width="1" fill-rule="nonzero" fill="#fdc55b" stroke="#101843"/><text xml:space="preserve" style="fill:#191919;font-family:微软雅黑;font-size:10.00pt"><tspan x="4.0" y="23.0">Commander</tspan><tspan x="48.0" y="42.0">更新控制模式并发布</tspan><tspan x="35.5" y="61.0">update_control_mode()</tspan><tspan x="5.0" y="80.0">_control_mode_pub.publish(_vehi</tspan><tspan x="50.5" y="99.0">cle_control_mode)</tspan></text></g><g id="shape9" transform="translate(3512.770000,1479.701000)"><path stroke-width="1" d="M.0,.0L.0,29.0" fill="none" stroke="#191919"/><path stroke-linecap="round" stroke-width="1" d="M3.0,29.0L.0,35.0L-3.0,29.0L3.0,29.0" fill="#191919" stroke="#191919"/></g><g id="shape10" transform="translate(3512.770000,1606.701000)"><path stroke-width="1" d="M.0,.0L.0,51.0" fill="none" stroke="#191919"/><path stroke-linecap="round" stroke-width="1" d="M3.0,51.0L.0,57.0L-3.0,51.0L3.0,51.0" fill="#191919" stroke="#191919"/></g><g id="shape11" transform="translate(3687.770000,1865.951000)"><path d="M401.0,85.0L401.0,7.0C401.0,3.1,397.9,.0,394.0,.0L7.0,.0C3.1,.0,.0,3.1,.0,7.0L.0,85.0C.0,88.9,3.1,92.0,7.0,92.0L394.0,92.0C397.9,92.0,401.0,88.9,401.0,85.0z" stroke-width="1" fill-rule="nonzero" fill="#e6dfd0" stroke="#101843"/><text xml:space="preserve" style="fill:#191919;font-family:微软雅黑;font-size:10.00pt"><tspan x="106.5" y="32.5">AutoLineSmoothVel任务初始化</tspan><tspan x="123.0" y="51.5">_initTask(new_task_index)</tspan><tspan x="14.5" y="70.5">_current_task.task = new (&amp;_task_union.autoLineSmoothVel)</tspan></text></g><g id="shape12" transform="translate(3687.770000,1975.451000)"><path d="M401.0,85.0L401.0,7.0C401.0,3.1,397.9,.0,394.0,.0L7.0,.0C3.1,.0,.0,3.1,.0,7.0L.0,85.0C.0,88.9,3.1,92.0,7.0,92.0L394.0,92.0C397.9,92.0,401.0,88.9,401.0,85.0z" stroke-width="1" fill-rule="nonzero" fill="#e6dfd0" stroke="#101843"/><text xml:space="preserve" style="fill:#191919;font-family:微软雅黑;font-size:10.00pt"><tspan x="142.0" y="32.5">任务运行更新初始化</tspan><tspan x="87.5" y="51.5">_current_task.task->updateInitialize()</tspan><tspan x="71.0" y="70.5">_current_task.task->activate(last_setpoint)</tspan></text></g><g id="shape13" transform="translate(3512.770000,1755.701000)"><path stroke-width="1" d="M.0,.0L.0,28.0" fill="none" stroke="#191919"/><path stroke-linecap="round" stroke-width="1" d="M3.0,28.0L.0,34.0L-3.0,28.0L3.0,28.0" fill="#191919" stroke="#191919"/></g><g id="shape14" transform="translate(3888.270000,1957.951000)"><path stroke-width="1" d="M.0,.0L.0,12.0" fill="none" stroke="#191919"/><path stroke-linecap="round" stroke-width="1" d="M3.0,12.0L.0,18.0L-3.0,12.0L3.0,12.0" fill="#191919" stroke="#191919"/></g><g id="shape15" transform="translate(3312.270000,2127.701000)"><path d="M401.0,85.0L401.0,7.0C401.0,3.1,397.9,.0,394.0,.0L7.0,.0C3.1,.0,.0,3.1,.0,7.0L.0,85.0C.0,88.9,3.1,92.0,7.0,92.0L394.0,92.0C397.9,92.0,401.0,88.9,401.0,85.0z" stroke-width="1" fill-rule="nonzero" fill="#e6dfd0" stroke="#101843"/><text xml:space="preserve" style="fill:#191919;font-family:微软雅黑;font-size:10.00pt"><tspan x="123.5" y="42.0">计算、生成、发布setpoint</tspan><tspan x="113.0" y="61.0">generateTrajectorySetpoint()</tspan></text></g><g id="shape16" transform="translate(3312.270000,1133.701000)"><path d="M401.0,85.0L401.0,7.0C401.0,3.1,397.9,.0,394.0,.0L7.0,.0C3.1,.0,.0,3.1,.0,7.0L.0,85.0C.0,88.9,3.1,92.0,7.0,92.0L394.0,92.0C397.9,92.0,401.0,88.9,401.0,85.0z" stroke-width="1" fill-rule="nonzero" fill="#e6dfd0" stroke="#101843"/><text xml:space="preserve" style="fill:#191919;font-family:微软雅黑;font-size:10.00pt"><tspan x="132.5" y="42.0">循环更新（50Hz频率）</tspan><tspan x="109.5" y="61.0">FlightModeManager::update()</tspan></text></g><g id="shape17" transform="translate(3371.020000,1260.701000)"><path d="M141.8,92.0L283.5,46.0L141.8,.0L.0,46.0L141.8,92.0z" stroke-width="1" fill-rule="nonzero" fill="#f3efdc" stroke="#101843"/><text xml:space="preserve" style="fill:#191919;font-family:微软雅黑;font-size:9.00pt"><tspan x="54.2" y="42.0">ORB_ID(vehicle_local_position)</tspan><tspan x="105.7" y="59.0">消息是否更新</tspan></text></g><g id="shape18" transform="translate(3512.770000,1225.701000)"><path stroke-width="1" d="M.0,.0L.0,29.0" fill="none" stroke="#191919"/><path stroke-linecap="round" stroke-width="1" d="M3.0,29.0L.0,35.0L-3.0,29.0L3.0,29.0" fill="#191919" stroke="#191919"/></g><g id="shape19" transform="translate(3512.770000,1352.701000)"><path stroke-width="1" d="M.0,.0L.0,29.0" fill="none" stroke="#191919"/><path stroke-linecap="round" stroke-width="1" d="M3.0,29.0L.0,35.0L-3.0,29.0L3.0,29.0" fill="#191919" stroke="#191919"/><rect x="-5.5" height="19.0" width="13.0" fill="#ffffff" y="8.0"/><text xml:space="preserve" style="fill:#191919;font-family:微软雅黑;font-size:10.00pt"><tspan x="-5.5" y="23.0">是</tspan></text></g><g id="shape20" transform="translate(3371.020000,1789.701000)"><path d="M141.8,92.1L283.5,46.0L141.8,.0L.0,46.0L141.8,92.1z" stroke-width="1" fill-rule="nonzero" fill="#f3efdc" stroke="#101843"/><text xml:space="preserve" style="fill:#191919;font-family:微软雅黑;font-size:9.00pt"><tspan x="93.7" y="50.5">任务是否已经存在</tspan></text></g><g id="shape21" transform="translate(3512.770000,1881.763500)"><path stroke-width="1" d="M.0,.0L.0,240.0" fill="none" stroke="#191919"/><path stroke-linecap="round" stroke-width="1" d="M3.0,240.0L.0,246.0L-3.0,240.0L3.0,240.0" fill="#191919" stroke="#191919"/><rect x="-5.5" height="19.0" width="13.0" fill="#ffffff" y="113.5"/><text xml:space="preserve" style="fill:#191919;font-family:微软雅黑;font-size:10.00pt"><tspan x="-5.5" y="128.5">是</tspan></text></g><g id="shape22" transform="translate(3654.520000,1835.732250)"><path stroke-width="1" d="M.0,.0L233.0,.0L233.0,24.0" fill="none" stroke="#191919"/><path stroke-linecap="round" stroke-width="1" d="M236.0,24.0L233.0,30.0L230.0,24.0L236.0,24.0" fill="#191919" stroke="#191919"/><rect x="126.0" height="19.0" width="13.0" fill="#ffffff" y="-9.5"/><text xml:space="preserve" style="fill:#191919;font-family:微软雅黑;font-size:10.00pt"><tspan x="126.0" y="5.5">否</tspan></text></g><g id="shape23" transform="translate(3734.520000,2250.701000)"><path d="M290.3,85.0L290.3,7.0C290.3,3.1,287.1,.0,283.3,.0L7.0,.0C3.1,.0,.0,3.1,.0,7.0L.0,85.0C.0,88.9,3.1,92.0,7.0,92.0L283.3,92.0C287.1,92.0,290.3,88.9,290.3,85.0z" stroke-width="1" fill-rule="nonzero" fill="#f3f3f3" stroke="#101843"/><text xml:space="preserve" style="fill:#191919;font-family:微软雅黑;font-size:10.00pt"><tspan x="86.6" y="42.0">任务运行更新初始化</tspan><tspan x="32.1" y="61.0">_current_task.task->updateInitialize()</tspan></text></g><g id="shape24" transform="translate(3734.520000,2380.701000)"><path d="M290.3,85.0L290.3,7.0C290.3,3.1,287.1,.0,283.3,.0L7.0,.0C3.1,.0,.0,3.1,.0,7.0L.0,85.0C.0,88.9,3.1,92.0,7.0,92.0L283.3,92.0C287.1,92.0,290.3,88.9,290.3,85.0z" stroke-width="1" fill-rule="nonzero" fill="#f3f3f3" stroke="#101843"/><text xml:space="preserve" style="fill:#191919;font-family:微软雅黑;font-size:10.00pt"><tspan x="106.1" y="42.0">任务运行更新</tspan><tspan x="56.6" y="61.0">_current_task.task->update()</tspan></text></g><g id="shape25" transform="translate(3734.520000,2510.701000)"><path d="M290.3,85.0L290.3,7.0C290.3,3.1,287.1,.0,283.3,.0L7.0,.0C3.1,.0,.0,3.1,.0,7.0L.0,85.0C.0,88.9,3.1,92.0,7.0,92.0L283.3,92.0C287.1,92.0,290.3,88.9,290.3,85.0z" stroke-width="1" fill-rule="nonzero" fill="#f3f3f3" stroke="#101843"/><text xml:space="preserve" style="fill:#191919;font-family:微软雅黑;font-size:10.00pt"><tspan x="54.1" y="42.0">任务运行更新结束（限幅处理）</tspan><tspan x="34.6" y="61.0">_current_task.task->updateFinalize()</tspan></text></g><g id="shape26" transform="translate(3734.520000,2640.701000)"><path d="M290.3,85.0L290.3,7.0C290.3,3.1,287.1,.0,283.3,.0L7.0,.0C3.1,.0,.0,3.1,.0,7.0L.0,85.0C.0,88.9,3.1,92.0,7.0,92.0L283.3,92.0C287.1,92.0,290.3,88.9,290.3,85.0z" stroke-width="1" fill-rule="nonzero" fill="#f3f3f3" stroke="#101843"/><text xml:space="preserve" style="fill:#191919;font-family:微软雅黑;font-size:10.00pt"><tspan x="15.6" y="42.0">发布setpoints: ORB_ID(trajectory_setpoint)</tspan><tspan x="17.1" y="61.0">_trajectory_setpoint_pub.publish(setpoint)</tspan></text></g><g id="shape27" transform="translate(3734.520000,2762.701000)"><path d="M290.3,85.0L290.3,7.0C290.3,3.1,287.1,.0,283.3,.0L7.0,.0C3.1,.0,.0,3.1,.0,7.0L.0,85.0C.0,88.9,3.1,92.0,7.0,92.0L283.3,92.0C287.1,92.0,290.3,88.9,290.3,85.0z" stroke-width="1" fill-rule="nonzero" fill="#f3f3f3" stroke="#101843"/><text xml:space="preserve" style="fill:#191919;font-family:微软雅黑;font-size:10.00pt"><tspan x="9.1" y="42.0">发布constraints: ORB_ID(vehicle_constraints)</tspan><tspan x="7.6" y="61.0">_vehicle_constraints_pub.publish(constraints)</tspan></text></g><g id="shape28" transform="translate(3713.270000,2173.701000)"><path stroke-width="1" d="M.0,.0L166.0,.0L166.0,71.0" fill="none" stroke="#191919"/><path stroke-linecap="round" stroke-width="1" d="M169.0,71.0L166.0,77.0L163.0,71.0L169.0,71.0" fill="#191919" stroke="#191919"/></g><g id="shape29" transform="translate(3879.645000,2342.701000)"><path stroke-width="1" d="M.0,.0L.0,32.0" fill="none" stroke="#191919"/><path stroke-linecap="round" stroke-width="1" d="M3.0,32.0L.0,38.0L-3.0,32.0L3.0,32.0" fill="#191919" stroke="#191919"/></g><g id="shape30" transform="translate(3879.645000,2472.701000)"><path stroke-width="1" d="M.0,.0L.0,32.0" fill="none" stroke="#191919"/><path stroke-linecap="round" stroke-width="1" d="M3.0,32.0L.0,38.0L-3.0,32.0L3.0,32.0" fill="#191919" stroke="#191919"/></g><g id="shape31" transform="translate(3879.645000,2602.701000)"><path stroke-width="1" d="M.0,.0L.0,32.0" fill="none" stroke="#191919"/><path stroke-linecap="round" stroke-width="1" d="M3.0,32.0L.0,38.0L-3.0,32.0L3.0,32.0" fill="#191919" stroke="#191919"/></g><g id="shape32" transform="translate(3879.645000,2732.701000)"><path stroke-width="1" d="M.0,.0L.0,24.0" fill="none" stroke="#191919"/><path stroke-linecap="round" stroke-width="1" d="M3.0,24.0L.0,30.0L-3.0,24.0L3.0,24.0" fill="#191919" stroke="#191919"/></g><g id="shape33" transform="translate(3329.145000,2337.201000)"><path d="M241.0,85.0L241.0,7.0C241.0,3.1,237.9,.0,234.0,.0L7.0,.0C3.1,.0,.0,3.1,.0,7.0L.0,85.0C.0,88.9,3.1,92.0,7.0,92.0L234.0,92.0C237.9,92.0,241.0,88.9,241.0,85.0z" stroke-width="1" fill-rule="nonzero" fill="#f3f3f3" stroke="#101843"/><text xml:space="preserve" style="fill:#191919;font-family:微软雅黑;font-size:10.00pt"><tspan x="94.5" y="23.0">订阅更新</tspan><tspan x="30.0" y="42.0">_sub_home_position.update();</tspan><tspan x="32.5" y="61.0">_sub_vehicle_status.update();</tspan><tspan x="29.0" y="80.0">_sub_triplet_setpoint.update();</tspan></text></g><g id="shape34" transform="translate(2986.020000,2307.701000)"><path d="M223.0,85.0L223.0,7.0C223.0,3.1,219.9,.0,216.0,.0L7.0,.0C3.1,.0,.0,3.1,.0,7.0L.0,85.0C.0,88.9,3.1,92.0,7.0,92.0L216.0,92.0C219.9,92.0,223.0,88.9,223.0,85.0z" stroke-width="1" fill-rule="nonzero" fill="#50ad76" stroke="#101843"/><text xml:space="preserve" style="fill:#191919;font-family:微软雅黑;font-size:10.00pt"><tspan x="4.0" y="32.5">Navigator</tspan><tspan x="77.5" y="51.5">发布triplets</tspan><tspan x="7.5" y="70.5">publish_position_setpoint_triplet();</tspan></text></g><g id="shape35" transform="translate(3209.020000,2353.701000)"><path stroke-dasharray="11,5,2.5,5" stroke-width="1" d="M.0,.0C14.8,.5,29.5,1.0,42.2,5.6C54.8,10.3,65.3,19.2,78.0,23.9C89.2,28.0,102.0,28.9,115.1,29.3" fill="none" stroke="#191919"/><path stroke-linecap="round" stroke-width="1" d="M114.2,26.3L120.1,29.5L114.0,32.3L114.2,26.3" fill="#191919" stroke="#191919"/></g><g id="shape36" transform="translate(3734.520000,2296.701000)"><path stroke-width="1" d="M.0,.0L-285.0,.0L-285.0,35.0" fill="none" stroke="#191919"/><path stroke-linecap="round" stroke-width="1" d="M-282.0,35.0L-285.0,41.0L-288.0,35.0L-282.0,35.0" fill="#191919" stroke="#191919"/></g><g id="shape37" transform="translate(3329.145000,2466.201000)"><path d="M241.0,85.0L241.0,7.0C241.0,3.1,237.9,.0,234.0,.0L7.0,.0C3.1,.0,.0,3.1,.0,7.0L.0,85.0C.0,88.9,3.1,92.0,7.0,92.0L234.0,92.0C237.9,92.0,241.0,88.9,241.0,85.0z" stroke-width="1" fill-rule="nonzero" fill="#f3f3f3" stroke="#101843"/><text xml:space="preserve" style="fill:#191919;font-family:微软雅黑;font-size:10.00pt"><tspan x="39.0" y="32.5">根据triplets给setpoints赋值</tspan><tspan x="48.0" y="51.5">并设置航点类型=takeoff</tspan><tspan x="66.0" y="70.5">_evaluateTriplets()</tspan></text></g><g id="shape38" transform="translate(3449.645000,2429.201000)"><path stroke-width="1" d="M.0,.0L.0,31.0" fill="none" stroke="#191919"/><path stroke-linecap="round" stroke-width="1" d="M3.0,31.0L.0,37.0L-3.0,31.0L3.0,31.0" fill="#191919" stroke="#191919"/></g><g id="shape39" transform="translate(3329.145000,2640.701000)"><path d="M250.4,85.0L250.4,7.0C250.4,3.1,247.2,.0,243.4,.0L7.0,.0C3.1,.0,.0,3.1,.0,7.0L.0,85.0C.0,88.9,3.1,92.0,7.0,92.0L243.4,92.0C247.2,92.0,250.4,88.9,250.4,85.0z" stroke-width="1" fill-rule="nonzero" fill="#f3f3f3" stroke="#101843"/><text xml:space="preserve" style="fill:#191919;font-family:微软雅黑;font-size:10.00pt"><tspan x="10.2" y="42.0">检查航点类型（takeoff）生成setpoints</tspan><tspan x="42.7" y="61.0">_prepareTakeoffSetpoints()</tspan></text></g><g id="shape40" transform="translate(3329.145000,2762.701000)"><path d="M250.4,85.0L250.4,7.0C250.4,3.1,247.2,.0,243.4,.0L7.0,.0C3.1,.0,.0,3.1,.0,7.0L.0,85.0C.0,88.9,3.1,92.0,7.0,92.0L243.4,92.0C247.2,92.0,250.4,88.9,250.4,85.0z" stroke-width="1" fill-rule="nonzero" fill="#f3f3f3" stroke="#101843"/><text xml:space="preserve" style="fill:#191919;font-family:微软雅黑;font-size:10.00pt"><tspan x="112.2" y="42.0">平滑</tspan><tspan x="62.2" y="61.0">_generateSetpoints()</tspan></text></g><g id="shape41" transform="translate(3454.332500,2732.701000)"><path stroke-width="1" d="M.0,.0L.0,24.0" fill="none" stroke="#191919"/><path stroke-linecap="round" stroke-width="1" d="M3.0,24.0L.0,30.0L-3.0,24.0L3.0,24.0" fill="#191919" stroke="#191919"/></g><g id="shape42" transform="translate(3734.520000,2426.701000)"><path stroke-width="1" d="M.0,.0L-44.3,.0L-44.3,181.0L-280.2,181.0L-280.2,208.0" fill="none" stroke="#191919"/><path stroke-linecap="round" stroke-width="1" d="M-277.2,208.0L-280.2,214.0L-283.2,208.0L-277.2,208.0" fill="#191919" stroke="#191919"/></g><g id="shape43" transform="translate(2986.020000,2083.701000)"><path d="M213.0,85.0L213.0,7.0C213.0,3.1,209.9,.0,206.0,.0L7.0,.0C3.1,.0,.0,3.1,.0,7.0L.0,85.0C.0,88.9,3.1,92.0,7.0,92.0L206.0,92.0C209.9,92.0,213.0,88.9,213.0,85.0z" stroke-width="1" fill-rule="nonzero" fill="#fdc55b" stroke="#101843"/><text xml:space="preserve" style="fill:#191919;font-family:微软雅黑;font-size:10.00pt"><tspan x="4.0" y="32.5">Commander</tspan><tspan x="23.5" y="51.5">发布ORB_ID(vehicle_status)</tspan><tspan x="21.0" y="70.5">_status_pub.publish(_status)</tspan></text></g><g id="shape44" transform="translate(3199.020000,2129.701000)"><path stroke-dasharray="11,5,2.5,5" stroke-width="1" d="M.0,.0C16.8,14.6,33.5,29.1,40.5,62.0C47.5,94.9,44.7,146.0,49.5,181.0C54.2,215.1,66.1,233.8,125.5,252.1" fill="none" stroke="#191919"/><path stroke-linecap="round" stroke-width="1" d="M125.2,248.9L130.1,253.5L123.5,254.6L125.2,248.9" fill="#191919" stroke="#191919"/></g></g></svg>