<svg xmlns:xlink="http://www.w3.org/1999/xlink" viewBox="0 0 306 564" height="564" width="306" xmlns="http://www.w3.org/2000/svg"><defs/><g transform="translate(-1185.52,-517.70)"><g transform="translate(1186.520000,726.701000)" id="shape1"><path d="M304.0,85.0L304.0,7.0C304.0,3.1,300.9,.0,297.0,.0L7.0,.0C3.1,.0,.0,3.1,.0,7.0L.0,85.0C.0,88.9,3.1,92.0,7.0,92.0L297.0,92.0C300.9,92.0,304.0,88.9,304.0,85.0z" fill="#fdff85" fill-rule="nonzero" stroke="#101843" stroke-width="1"/><text style="fill:#191919;font-family:微软雅黑;font-size:10.00pt" xml:space="preserve"><tspan x="47.5" y="42.0">handle_message_command_long()</tspan><tspan x="26.0" y="61.0">CMD_ID=22(MAV_CMD_NAV_TAKEOFF)</tspan></text></g><g transform="translate(1186.520000,627.701000)" id="shape2"><path d="M304.0,53.0L304.0,7.0C304.0,3.1,300.9,.0,297.0,.0L7.0,.0C3.1,.0,.0,3.1,.0,7.0L.0,53.0C.0,56.9,3.1,60.0,7.0,60.0L297.0,60.0C300.9,60.0,304.0,56.9,304.0,53.0z" fill="#fdff85" fill-rule="nonzero" stroke="#101843" stroke-width="1"/><text style="fill:#191919;font-family:微软雅黑;font-size:10.00pt" xml:space="preserve"><tspan x="101.5" y="35.5">mavlink_receiver</tspan></text></g><g transform="translate(1186.520000,988.701000)" id="shape3"><path d="M304.0,85.0L304.0,7.0C304.0,3.1,300.9,.0,297.0,.0L7.0,.0C3.1,.0,.0,3.1,.0,7.0L.0,85.0C.0,88.9,3.1,92.0,7.0,92.0L297.0,92.0C300.9,92.0,304.0,88.9,304.0,85.0z" fill="#fdff85" fill-rule="nonzero" stroke="#101843" stroke-width="1"/><text style="fill:#191919;font-family:微软雅黑;font-size:10.00pt" xml:space="preserve"><tspan x="47.5" y="42.0">handle_message_command_long()</tspan><tspan x="56.5" y="61.0">发布ORB_ID(vehicle_command)</tspan></text></g><g transform="translate(1186.520000,518.701000)" id="shape4"><path d="M117.0,53.0L117.0,7.0C117.0,3.1,113.9,.0,110.0,.0L7.0,.0C3.1,.0,.0,3.1,.0,7.0L.0,53.0C.0,56.9,3.1,60.0,7.0,60.0L110.0,60.0C113.9,60.0,117.0,56.9,117.0,53.0z" fill="#ffffff" fill-rule="nonzero" stroke="#101843" stroke-width="1"/><text style="fill:#191919;font-family:微软雅黑;font-size:10.00pt" xml:space="preserve"><tspan x="17.5" y="35.5">QGC点击起飞</tspan></text></g><g transform="translate(1338.520000,687.701000)" id="shape5"><path d="M.0,.0L.0,33.0" fill="none" stroke="#191919" stroke-width="1"/><path d="M3.0,33.0L.0,39.0L-3.0,33.0L3.0,33.0" fill="#191919" stroke-linecap="round" stroke="#191919" stroke-width="1"/></g><g transform="translate(1245.020000,578.701000)" id="shape6"><path d="M.0,.0C1.5,10.8,3.1,21.5,17.9,24.3C32.7,27.1,60.8,21.9,75.6,24.7C88.1,27.0,91.1,35.0,92.7,43.9" fill="none" stroke="#191919" stroke-dasharray="11,5,2.5,5" stroke-width="1"/><path d="M95.6,42.6L93.5,49.0L89.6,43.5L95.6,42.6" fill="#191919" stroke-linecap="round" stroke="#191919" stroke-width="1"/></g><g transform="translate(1186.520000,857.701000)" id="shape7"><path d="M304.0,85.0L304.0,7.0C304.0,3.1,300.9,.0,297.0,.0L7.0,.0C3.1,.0,.0,3.1,.0,7.0L.0,85.0C.0,88.9,3.1,92.0,7.0,92.0L297.0,92.0C300.9,92.0,304.0,88.9,304.0,85.0z" fill="#fdff85" fill-rule="nonzero" stroke="#101843" stroke-width="1"/><text style="fill:#191919;font-family:微软雅黑;font-size:10.00pt" xml:space="preserve"><tspan x="47.5" y="32.5">handle_message_command_long()</tspan><tspan x="4.5" y="51.5">CMD_ID=400(MAV_CMD_COMPONENT_ARM_</tspan><tspan x="124.0" y="70.5">DISARM)</tspan></text></g><g transform="translate(1338.520000,818.701000)" id="shape8"><path d="M.0,.0L.0,33.0" fill="none" stroke="#191919" stroke-width="1"/><path d="M3.0,33.0L.0,39.0L-3.0,33.0L3.0,33.0" fill="#191919" stroke-linecap="round" stroke="#191919" stroke-width="1"/></g><g transform="translate(1338.520000,949.701000)" id="shape9"><path d="M.0,.0L.0,33.0" fill="none" stroke="#191919" stroke-width="1"/><path d="M3.0,33.0L.0,39.0L-3.0,33.0L3.0,33.0" fill="#191919" stroke-linecap="round" stroke="#191919" stroke-width="1"/></g></g></svg>