<svg width="821" xmlns="http://www.w3.org/2000/svg" height="1620" xmlns:xlink="http://www.w3.org/1999/xlink" viewBox="0 0 821 1620"><defs/><g transform="translate(-217.50,-59.00)"><path fill-rule="nonzero" fill="#ffffff" d="M620.0,150.0L620.0,.0L.0,.0L.0,150.0L620.0,150.0z" id="shape1" stroke-width="1" stroke="#101843" transform="translate(415.500000,60.000000)"/><path fill-rule="nonzero" fill="#ffffff" d="M620.0,287.0L620.0,.0L.0,.0L.0,287.0L620.0,287.0z" id="shape2" stroke-width="1" stroke="#101843" transform="translate(417.500000,1390.500000)"/><path fill-rule="nonzero" fill="#ffffff" d="M620.0,287.0L620.0,.0L.0,.0L.0,287.0L620.0,287.0z" id="shape3" stroke-width="1" stroke="#101843" transform="translate(417.500000,1021.000000)"/><path fill-rule="nonzero" fill="#ffffff" d="M620.0,669.0L620.0,.0L.0,.0L.0,669.0L620.0,669.0z" id="shape4" stroke-width="1" stroke="#101843" transform="translate(416.000000,252.000000)"/><g id="shape5" transform="translate(437.000000,281.925000)"><path fill-rule="nonzero" fill="#ffffff" d="M193.0,28.0L193.0,7.0C193.0,3.1,189.9,.0,186.0,.0L7.0,.0C3.1,.0,.0,3.1,.0,7.0L.0,28.0C.0,31.9,3.1,35.0,7.0,35.0L186.0,35.0C189.9,35.0,193.0,31.9,193.0,28.0z" stroke-width="1" stroke="#101843"/><text style="fill:#191919;font-family:微软雅黑;font-size:10.00pt" xml:space="preserve"><tspan x="44.5" y="23.0">当前为固定翼模态</tspan></text></g><g id="shape6" transform="translate(437.000000,366.850000)"><path fill-rule="nonzero" fill="#ffffff" d="M193.0,28.0L193.0,7.0C193.0,3.1,189.9,.0,186.0,.0L7.0,.0C3.1,.0,.0,3.1,.0,7.0L.0,28.0C.0,31.9,3.1,35.0,7.0,35.0L186.0,35.0C189.9,35.0,193.0,31.9,193.0,28.0z" stroke-width="1" stroke="#101843"/><text style="fill:#191919;font-family:微软雅黑;font-size:10.00pt" xml:space="preserve"><tspan x="26.0" y="23.0">模态转换&amp;高度控制有效</tspan></text></g><g id="shape7" transform="translate(437.000000,440.500000)"><path fill-rule="nonzero" fill="#ffffff" d="M193.0,28.0L193.0,7.0C193.0,3.1,189.9,.0,186.0,.0L7.0,.0C3.1,.0,.0,3.1,.0,7.0L.0,28.0C.0,31.9,3.1,35.0,7.0,35.0L186.0,35.0C189.9,35.0,193.0,31.9,193.0,28.0z" stroke-width="1" stroke="#101843"/><text style="fill:#191919;font-family:微软雅黑;font-size:10.00pt" xml:space="preserve"><tspan x="57.5" y="23.0">自主跟随模式</tspan></text></g><g id="shape8" transform="translate(437.000000,524.000000)"><path fill-rule="nonzero" fill="#ffffff" d="M193.0,28.0L193.0,7.0C193.0,3.1,189.9,.0,186.0,.0L7.0,.0C3.1,.0,.0,3.1,.0,7.0L.0,28.0C.0,31.9,3.1,35.0,7.0,35.0L186.0,35.0C189.9,35.0,193.0,31.9,193.0,28.0z" stroke-width="1" stroke="#101843"/><text style="fill:#191919;font-family:微软雅黑;font-size:10.00pt" xml:space="preserve"><tspan x="57.5" y="23.0">自主控制有效</tspan></text></g><g id="shape9" transform="translate(718.000000,524.000000)"><path fill-rule="nonzero" fill="#ffffff" d="M193.0,28.0L193.0,7.0C193.0,3.1,189.9,.0,186.0,.0L7.0,.0C3.1,.0,.0,3.1,.0,7.0L.0,28.0C.0,31.9,3.1,35.0,7.0,35.0L186.0,35.0C189.9,35.0,193.0,31.9,193.0,28.0z" stroke-width="1" stroke="#101843"/><text style="fill:#191919;font-family:微软雅黑;font-size:10.00pt" xml:space="preserve"><tspan x="35.0" y="23.0">AutoLineSmoothVel</tspan></text></g><g id="shape10" transform="translate(718.000000,440.500000)"><path fill-rule="nonzero" fill="#ffffff" d="M193.0,28.0L193.0,7.0C193.0,3.1,189.9,.0,186.0,.0L7.0,.0C3.1,.0,.0,3.1,.0,7.0L.0,28.0C.0,31.9,3.1,35.0,7.0,35.0L186.0,35.0C189.9,35.0,193.0,31.9,193.0,28.0z" stroke-width="1" stroke="#101843"/><text style="fill:#191919;font-family:微软雅黑;font-size:10.00pt" xml:space="preserve"><tspan x="52.0" y="23.0">AutoFollowMe</tspan></text></g><g id="shape11" transform="translate(718.000000,366.850000)"><path fill-rule="nonzero" fill="#ffffff" d="M193.0,28.0L193.0,7.0C193.0,3.1,189.9,.0,186.0,.0L7.0,.0C3.1,.0,.0,3.1,.0,7.0L.0,28.0C.0,31.9,3.1,35.0,7.0,35.0L186.0,35.0C189.9,35.0,193.0,31.9,193.0,28.0z" stroke-width="1" stroke="#101843"/><text style="fill:#191919;font-family:微软雅黑;font-size:10.00pt" xml:space="preserve"><tspan x="66.5" y="23.0">Transition</tspan></text></g><g id="shape12" transform="translate(630.000000,384.350000)"><path fill="none" d="M.0,.0L82.0,.0" stroke-width="1" stroke="#191919"/><path fill="#191919" d="M82.0,-3.0L88.0,.0L82.0,3.0L82.0,-3.0" stroke-width="1" stroke-linecap="round" stroke="#191919"/><rect width="13.0" fill="#ffffff" height="19.0" x="32.8" y="-9.5"/><text style="fill:#191919;font-family:微软雅黑;font-size:10.00pt" xml:space="preserve"><tspan x="32.8" y="5.5">是</tspan></text></g><g id="shape13" transform="translate(630.000000,458.000000)"><path fill="none" d="M.0,.0L82.0,.0" stroke-width="1" stroke="#191919"/><path fill="#191919" d="M82.0,-3.0L88.0,.0L82.0,3.0L82.0,-3.0" stroke-width="1" stroke-linecap="round" stroke="#191919"/><rect width="13.0" fill="#ffffff" height="19.0" x="33.3" y="-9.5"/><text style="fill:#191919;font-family:微软雅黑;font-size:10.00pt" xml:space="preserve"><tspan x="33.3" y="5.5">是</tspan></text></g><g id="shape14" transform="translate(630.000000,541.500000)"><path fill="none" d="M.0,.0L82.0,.0" stroke-width="1" stroke="#191919"/><path fill="#191919" d="M82.0,-3.0L88.0,.0L82.0,3.0L82.0,-3.0" stroke-width="1" stroke-linecap="round" stroke="#191919"/><rect width="13.0" fill="#ffffff" height="19.0" x="34.5" y="-9.5"/><text style="fill:#191919;font-family:微软雅黑;font-size:10.00pt" xml:space="preserve"><tspan x="34.5" y="5.5">是</tspan></text></g><g id="shape15" transform="translate(437.000000,607.500000)"><path fill-rule="nonzero" fill="#ffffff" d="M193.0,28.0L193.0,7.0C193.0,3.1,189.9,.0,186.0,.0L7.0,.0C3.1,.0,.0,3.1,.0,7.0L.0,28.0C.0,31.9,3.1,35.0,7.0,35.0L186.0,35.0C189.9,35.0,193.0,31.9,193.0,28.0z" stroke-width="1" stroke="#101843"/><text style="fill:#191919;font-family:微软雅黑;font-size:10.00pt" xml:space="preserve"><tspan x="70.5" y="23.0">降落模式</tspan></text></g><g id="shape16" transform="translate(718.000000,607.500000)"><path fill-rule="nonzero" fill="#ffffff" d="M193.0,28.0L193.0,7.0C193.0,3.1,189.9,.0,186.0,.0L7.0,.0C3.1,.0,.0,3.1,.0,7.0L.0,28.0C.0,31.9,3.1,35.0,7.0,35.0L186.0,35.0C189.9,35.0,193.0,31.9,193.0,28.0z" stroke-width="1" stroke="#101843"/><text style="fill:#191919;font-family:微软雅黑;font-size:10.00pt" xml:space="preserve"><tspan x="70.0" y="23.0">Descend</tspan></text></g><g id="shape17" transform="translate(437.000000,691.000000)"><path fill-rule="nonzero" fill="#ffffff" d="M193.0,28.0L193.0,7.0C193.0,3.1,189.9,.0,186.0,.0L7.0,.0C3.1,.0,.0,3.1,.0,7.0L.0,28.0C.0,31.9,3.1,35.0,7.0,35.0L186.0,35.0C189.9,35.0,193.0,31.9,193.0,28.0z" stroke-width="1" stroke="#101843"/><text style="fill:#191919;font-family:微软雅黑;font-size:10.00pt" xml:space="preserve"><tspan x="70.5" y="23.0">位置模式</tspan></text></g><g id="shape18" transform="translate(718.000000,691.000000)"><path fill-rule="nonzero" fill="#ffffff" d="M193.0,28.0L193.0,7.0C193.0,3.1,189.9,.0,186.0,.0L7.0,.0C3.1,.0,.0,3.1,.0,7.0L.0,28.0C.0,31.9,3.1,35.0,7.0,35.0L186.0,35.0C189.9,35.0,193.0,31.9,193.0,28.0z" stroke-width="1" stroke="#101843"/><text style="fill:#191919;font-family:微软雅黑;font-size:10.00pt" xml:space="preserve"><tspan x="15.0" y="23.0">ManualPositionSmoothVel</tspan></text></g><g id="shape19" transform="translate(437.000000,775.000000)"><path fill-rule="nonzero" fill="#ffffff" d="M193.0,28.0L193.0,7.0C193.0,3.1,189.9,.0,186.0,.0L7.0,.0C3.1,.0,.0,3.1,.0,7.0L.0,28.0C.0,31.9,3.1,35.0,7.0,35.0L186.0,35.0C189.9,35.0,193.0,31.9,193.0,28.0z" stroke-width="1" stroke="#101843"/><text style="fill:#191919;font-family:微软雅黑;font-size:10.00pt" xml:space="preserve"><tspan x="70.5" y="23.0">高度模式</tspan></text></g><g id="shape20" transform="translate(718.000000,775.000000)"><path fill-rule="nonzero" fill="#ffffff" d="M193.0,28.0L193.0,7.0C193.0,3.1,189.9,.0,186.0,.0L7.0,.0C3.1,.0,.0,3.1,.0,7.0L.0,28.0C.0,31.9,3.1,35.0,7.0,35.0L186.0,35.0C189.9,35.0,193.0,31.9,193.0,28.0z" stroke-width="1" stroke="#101843"/><text style="fill:#191919;font-family:微软雅黑;font-size:10.00pt" xml:space="preserve"><tspan x="15.5" y="23.0">ManualAltitudeSmoothVel</tspan></text></g><g id="shape21" transform="translate(267.000000,243.925000)"><text style="fill:#191919;font-family:微软雅黑;font-size:10.00pt" xml:space="preserve"><tspan x="7.0" y="32.5">FlightModeManager::</tspan><tspan x="33.0" y="51.5">start_flight_task()</tspan></text></g><g id="shape22" transform="translate(533.500000,316.925000)"><path fill="none" d="M.0,.0L.0,44.0" stroke-width="1" stroke="#191919"/><path fill="#191919" d="M3.0,44.0L.0,50.0L-3.0,44.0L3.0,44.0" stroke-width="1" stroke-linecap="round" stroke="#191919"/><rect width="13.0" fill="#ffffff" height="19.0" x="-5.5" y="14.2"/><text style="fill:#191919;font-family:微软雅黑;font-size:10.00pt" xml:space="preserve"><tspan x="-5.5" y="29.2">否</tspan></text></g><g id="shape23" transform="translate(533.500000,401.850000)"><path fill="none" d="M.0,.0L.0,33.0" stroke-width="1" stroke="#191919"/><path fill="#191919" d="M3.0,33.0L.0,39.0L-3.0,33.0L3.0,33.0" stroke-width="1" stroke-linecap="round" stroke="#191919"/><rect width="13.0" fill="#ffffff" height="19.0" x="-5.5" y="7.4"/><text style="fill:#191919;font-family:微软雅黑;font-size:10.00pt" xml:space="preserve"><tspan x="-5.5" y="22.4">否</tspan></text></g><g id="shape24" transform="translate(533.500000,475.500000)"><path fill="none" d="M.0,.0L.0,43.0" stroke-width="1" stroke="#191919"/><path fill="#191919" d="M3.0,43.0L.0,49.0L-3.0,43.0L3.0,43.0" stroke-width="1" stroke-linecap="round" stroke="#191919"/><rect width="13.0" fill="#ffffff" height="19.0" x="-5.5" y="9.2"/><text style="fill:#191919;font-family:微软雅黑;font-size:10.00pt" xml:space="preserve"><tspan x="-5.5" y="24.2">否</tspan></text></g><g id="shape25" transform="translate(533.500000,559.000000)"><path fill="none" d="M.0,.0L.0,42.0" stroke-width="1" stroke="#191919"/><path fill="#191919" d="M3.0,42.0L.0,48.0L-3.0,42.0L3.0,42.0" stroke-width="1" stroke-linecap="round" stroke="#191919"/><rect width="13.0" fill="#ffffff" height="19.0" x="-5.5" y="10.2"/><text style="fill:#191919;font-family:微软雅黑;font-size:10.00pt" xml:space="preserve"><tspan x="-5.5" y="25.2">否</tspan></text></g><g id="shape26" transform="translate(533.500000,642.500000)"><path fill="none" d="M.0,.0L.0,43.0" stroke-width="1" stroke="#191919"/><path fill="#191919" d="M3.0,43.0L.0,49.0L-3.0,43.0L3.0,43.0" stroke-width="1" stroke-linecap="round" stroke="#191919"/><rect width="13.0" fill="#ffffff" height="19.0" x="-5.5" y="9.1"/><text style="fill:#191919;font-family:微软雅黑;font-size:10.00pt" xml:space="preserve"><tspan x="-5.5" y="24.1">否</tspan></text></g><g id="shape27" transform="translate(533.500000,726.000000)"><path fill="none" d="M.0,.0L.0,43.0" stroke-width="1" stroke="#191919"/><path fill="#191919" d="M3.0,43.0L.0,49.0L-3.0,43.0L3.0,43.0" stroke-width="1" stroke-linecap="round" stroke="#191919"/><rect width="13.0" fill="#ffffff" height="19.0" x="-5.5" y="7.6"/><text style="fill:#191919;font-family:微软雅黑;font-size:10.00pt" xml:space="preserve"><tspan x="-5.5" y="22.6">否</tspan></text></g><g id="shape28" transform="translate(630.000000,625.000000)"><path fill="none" d="M.0,.0L82.0,.0" stroke-width="1" stroke="#191919"/><path fill="#191919" d="M82.0,-3.0L88.0,.0L82.0,3.0L82.0,-3.0" stroke-width="1" stroke-linecap="round" stroke="#191919"/><rect width="13.0" fill="#ffffff" height="19.0" x="34.5" y="-9.5"/><text style="fill:#191919;font-family:微软雅黑;font-size:10.00pt" xml:space="preserve"><tspan x="34.5" y="5.5">是</tspan></text></g><g id="shape29" transform="translate(630.000000,708.500000)"><path fill="none" d="M.0,.0L82.0,.0" stroke-width="1" stroke="#191919"/><path fill="#191919" d="M82.0,-3.0L88.0,.0L82.0,3.0L82.0,-3.0" stroke-width="1" stroke-linecap="round" stroke="#191919"/><rect width="13.0" fill="#ffffff" height="19.0" x="34.5" y="-9.5"/><text style="fill:#191919;font-family:微软雅黑;font-size:10.00pt" xml:space="preserve"><tspan x="34.5" y="5.5">是</tspan></text></g><g id="shape30" transform="translate(630.000000,792.500000)"><path fill="none" d="M.0,.0L82.0,.0" stroke-width="1" stroke="#191919"/><path fill="#191919" d="M82.0,-3.0L88.0,.0L82.0,3.0L82.0,-3.0" stroke-width="1" stroke-linecap="round" stroke="#191919"/><rect width="13.0" fill="#ffffff" height="19.0" x="34.5" y="-9.5"/><text style="fill:#191919;font-family:微软雅黑;font-size:10.00pt" xml:space="preserve"><tspan x="34.5" y="5.5">是</tspan></text></g><g id="shape31" transform="translate(587.979000,1033.500000)"><path fill-rule="nonzero" fill="#ffffff" d="M193.0,28.0L193.0,7.0C193.0,3.1,189.9,.0,186.0,.0L7.0,.0C3.1,.0,.0,3.1,.0,7.0L.0,28.0C.0,31.9,3.1,35.0,7.0,35.0L186.0,35.0C189.9,35.0,193.0,31.9,193.0,28.0z" stroke-width="1" stroke="#101843"/><text style="fill:#191919;font-family:微软雅黑;font-size:10.00pt" xml:space="preserve"><tspan x="44.5" y="23.0">飞行任务是否切换</tspan></text></g><path fill-rule="nonzero" fill="#ffffff" d="M22.8,35.0L45.5,17.5L22.8,.0L.0,17.5L22.8,35.0z" id="shape32" stroke-width="1" stroke="#101843" transform="translate(661.718500,964.500000)"/><g id="shape33" transform="translate(911.000000,384.000000)"><path fill="none" d="M.0,.0L28.0,.0L28.0,597.0L-197.0,597.0" stroke-width="1" stroke="#191919"/><path fill="#191919" d="M-197.0,600.0L-203.0,597.0L-197.0,594.0L-197.0,600.0" stroke-width="1" stroke-linecap="round" stroke="#191919"/></g><g id="shape34" transform="translate(911.000000,458.000000)"><path fill="none" d="M.0,.0L22.0,.0" stroke-width="1" stroke="#191919"/><path fill="#191919" d="M22.0,-3.0L28.0,.0L22.0,3.0L22.0,-3.0" stroke-width="1" stroke-linecap="round" stroke="#191919"/></g><g id="shape35" transform="translate(911.000000,541.500000)"><path fill="none" d="M.0,.0L22.0,.0" stroke-width="1" stroke="#191919"/><path fill="#191919" d="M22.0,-3.0L28.0,.0L22.0,3.0L22.0,-3.0" stroke-width="1" stroke-linecap="round" stroke="#191919"/></g><g id="shape36" transform="translate(911.000000,625.000000)"><path fill="none" d="M.0,.0L22.0,.0" stroke-width="1" stroke="#191919"/><path fill="#191919" d="M22.0,-3.0L28.0,.0L22.0,3.0L22.0,-3.0" stroke-width="1" stroke-linecap="round" stroke="#191919"/></g><g id="shape37" transform="translate(911.000000,708.500000)"><path fill="none" d="M.0,.0L22.0,.0" stroke-width="1" stroke="#191919"/><path fill="#191919" d="M22.0,-3.0L28.0,.0L22.0,3.0L22.0,-3.0" stroke-width="1" stroke-linecap="round" stroke="#191919"/></g><g id="shape38" transform="translate(911.000000,792.000000)"><path fill="none" d="M.0,.0L22.0,.0" stroke-width="1" stroke="#191919"/><path fill="#191919" d="M22.0,-3.0L28.0,.0L22.0,3.0L22.0,-3.0" stroke-width="1" stroke-linecap="round" stroke="#191919"/></g><g id="shape39" transform="translate(473.869800,841.812200)"><path fill-rule="nonzero" fill="#ffffff" d="M59.6,42.2L119.3,21.1L59.6,.0L.0,21.1L59.6,42.2z" stroke-width="1" stroke="#101843"/><text style="fill:#191919;font-family:微软雅黑;font-size:10.00pt" xml:space="preserve"><tspan x="25.1" y="26.6">task_failure</tspan></text></g><g id="shape40" transform="translate(533.500000,810.000000)"><path fill="none" d="M.0,.0L.0,25.0" stroke-width="1" stroke="#191919"/><path fill="#191919" d="M3.0,25.0L.0,31.0L-3.0,25.0L3.0,25.0" stroke-width="1" stroke-linecap="round" stroke="#191919"/></g><g id="shape41" transform="translate(718.000000,845.406000)"><path fill-rule="nonzero" fill="#ffffff" d="M94.0,28.0L94.0,7.0C94.0,3.1,90.9,.0,87.0,.0L7.0,.0C3.1,.0,.0,3.1,.0,7.0L.0,28.0C.0,31.9,3.1,35.0,7.0,35.0L87.0,35.0C90.9,35.0,94.0,31.9,94.0,28.0z" stroke-width="1" stroke="#101843"/><text style="fill:#191919;font-family:微软雅黑;font-size:10.00pt" xml:space="preserve"><tspan x="24.5" y="23.0">Failsafe</tspan></text></g><g id="shape42" transform="translate(594.000000,862.000000)"><path fill="none" d="M.0,.0L118.0,.0" stroke-width="1" stroke="#191919"/><path fill="#191919" d="M118.0,-3.0L124.0,.0L118.0,3.0L118.0,-3.0" stroke-width="1" stroke-linecap="round" stroke="#191919"/><rect width="13.0" fill="#ffffff" height="19.0" x="56.5" y="-9.5"/><text style="fill:#191919;font-family:微软雅黑;font-size:10.00pt" xml:space="preserve"><tspan x="56.5" y="5.5">是</tspan></text></g><g id="shape43" transform="translate(812.000000,862.000000)"><path fill="none" d="M.0,.0L121.0,.0" stroke-width="1" stroke="#191919"/><path fill="#191919" d="M121.0,-3.0L127.0,.0L121.0,3.0L121.0,-3.0" stroke-width="1" stroke-linecap="round" stroke="#191919"/></g><g id="shape44" transform="translate(533.000000,885.000000)"><path fill="none" d="M.0,.0L.0,51.0L150.0,51.0L150.0,73.0" stroke-width="1" stroke="#191919"/><path fill="#191919" d="M153.0,73.0L150.0,79.0L147.0,73.0L153.0,73.0" stroke-width="1" stroke-linecap="round" stroke="#191919"/><rect width="13.0" fill="#ffffff" height="19.0" x="58.0" y="41.5"/><text style="fill:#191919;font-family:微软雅黑;font-size:10.00pt" xml:space="preserve"><tspan x="58.0" y="56.5">否</tspan></text></g><g id="shape45" transform="translate(684.479000,999.500000)"><path fill="none" d="M.0,.0L.0,28.0" stroke-width="1" stroke="#191919"/><path fill="#191919" d="M3.0,28.0L.0,34.0L-3.0,28.0L3.0,28.0" stroke-width="1" stroke-linecap="round" stroke="#191919"/></g><g id="shape46" transform="translate(568.963000,1102.500000)"><path fill-rule="nonzero" fill="#ffffff" d="M231.0,28.0L231.0,7.0C231.0,3.1,227.9,.0,224.0,.0L7.0,.0C3.1,.0,.0,3.1,.0,7.0L.0,28.0C.0,31.9,3.1,35.0,7.0,35.0L224.0,35.0C227.9,35.0,231.0,31.9,231.0,28.0z" stroke-width="1" stroke="#101843"/><text style="fill:#191919;font-family:微软雅黑;font-size:10.00pt" xml:space="preserve"><tspan x="19.0" y="23.0">实例化新的飞行任务类:_initTask()</tspan></text></g><g id="shape47" transform="translate(568.963000,1171.500000)"><path fill-rule="nonzero" fill="#ffffff" d="M231.0,28.0L231.0,7.0C231.0,3.1,227.9,.0,224.0,.0L7.0,.0C3.1,.0,.0,3.1,.0,7.0L.0,28.0C.0,31.9,3.1,35.0,7.0,35.0L224.0,35.0C227.9,35.0,231.0,31.9,231.0,28.0z" stroke-width="1" stroke="#101843"/><text style="fill:#191919;font-family:微软雅黑;font-size:10.00pt" xml:space="preserve"><tspan x="29.5" y="23.0">新类初始化: updateInitialize()</tspan></text></g><g id="shape48" transform="translate(568.963000,1240.500000)"><path fill-rule="nonzero" fill="#ffffff" d="M231.0,28.0L231.0,7.0C231.0,3.1,227.9,.0,224.0,.0L7.0,.0C3.1,.0,.0,3.1,.0,7.0L.0,28.0C.0,31.9,3.1,35.0,7.0,35.0L224.0,35.0C227.9,35.0,231.0,31.9,231.0,28.0z" stroke-width="1" stroke="#101843"/><text style="fill:#191919;font-family:微软雅黑;font-size:10.00pt" xml:space="preserve"><tspan x="58.0" y="23.0">新类启动: activate()</tspan></text></g><g id="shape49" transform="translate(684.479000,1068.500000)"><path fill="none" d="M.0,.0L.0,28.0" stroke-width="1" stroke="#191919"/><path fill="#191919" d="M3.0,28.0L.0,34.0L-3.0,28.0L3.0,28.0" stroke-width="1" stroke-linecap="round" stroke="#191919"/><rect width="13.0" fill="#ffffff" height="19.0" x="-5.5" y="6.5"/><text style="fill:#191919;font-family:微软雅黑;font-size:10.00pt" xml:space="preserve"><tspan x="-5.5" y="21.5">是</tspan></text></g><g id="shape50" transform="translate(684.000000,1137.000000)"><path fill="none" d="M.0,.0L.0,28.0" stroke-width="1" stroke="#191919"/><path fill="#191919" d="M3.0,28.0L.0,34.0L-3.0,28.0L3.0,28.0" stroke-width="1" stroke-linecap="round" stroke="#191919"/></g><g id="shape51" transform="translate(684.000000,1206.000000)"><path fill="none" d="M.0,.0L.0,28.0" stroke-width="1" stroke="#191919"/><path fill="#191919" d="M3.0,28.0L.0,34.0L-3.0,28.0L3.0,28.0" stroke-width="1" stroke-linecap="round" stroke="#191919"/></g><g id="shape52" transform="translate(262.000200,1021.000000)"><text style="fill:#191919;font-family:微软雅黑;font-size:10.00pt" xml:space="preserve"><tspan x="7.0" y="23.0">FlightModeManager::</tspan><tspan x="64.0" y="42.0">switchTask()</tspan></text></g><path fill-rule="nonzero" fill="#ffffff" d="M22.8,35.0L45.5,17.5L22.8,.0L.0,17.5L22.8,35.0z" id="shape53" stroke-width="1" stroke="#101843" transform="translate(661.718500,1335.500000)"/><g id="shape54" transform="translate(684.000000,1275.000000)"><path fill="none" d="M.0,.0L.0,54.0" stroke-width="1" stroke="#191919"/><path fill="#191919" d="M3.0,54.0L.0,60.0L-3.0,54.0L3.0,54.0" stroke-width="1" stroke-linecap="round" stroke="#191919"/></g><g id="shape55" transform="translate(515.461000,1415.000000)"><path fill-rule="nonzero" fill="#ffffff" d="M338.0,28.0L338.0,7.0C338.0,3.1,334.9,.0,331.0,.0L7.0,.0C3.1,.0,.0,3.1,.0,7.0L.0,28.0C.0,31.9,3.1,35.0,7.0,35.0L331.0,35.0C334.9,35.0,338.0,31.9,338.0,28.0z" stroke-width="1" stroke="#101843"/><text style="fill:#191919;font-family:微软雅黑;font-size:10.00pt" xml:space="preserve"><tspan x="13.5" y="23.0">飞行数据更新: _current_task.task->updateInitialize()</tspan></text></g><g id="shape56" transform="translate(454.000000,1124.000000)"><path fill-rule="nonzero" fill="#ffffff" d="M.0,24.3C.0,10.9,21.7,.0,48.5,.0C75.3,.0,97.0,10.9,97.0,24.3C97.0,37.6,75.3,48.5,48.5,48.5C21.7,48.5,.0,37.6,.0,24.3z" stroke-width="1" stroke="#101843"/><text style="fill:#191919;font-family:微软雅黑;font-size:10.00pt" xml:space="preserve"><tspan x="7.5" y="29.8">_current_task</tspan></text></g><g id="shape57" transform="translate(568.963000,1120.000000)"><path fill="none" d="M.0,.0C-13.4,-0.0,-26.7,-0.0,-37.8,.3C-48.9,.5,-57.8,1.1,-62.2,1.7" stroke-width="1" stroke-dasharray="6,4" stroke="#191919"/><path fill="#191919" d="M-59.8,3.8L-66.5,4.0L-62.6,-1.5L-59.8,3.8" stroke-width="1" stroke-linecap="round" stroke="#191919"/></g><g id="shape58" transform="translate(515.461000,1481.000000)"><path fill-rule="nonzero" fill="#ffffff" d="M338.0,28.0L338.0,7.0C338.0,3.1,334.9,.0,331.0,.0L7.0,.0C3.1,.0,.0,3.1,.0,7.0L.0,28.0C.0,31.9,3.1,35.0,7.0,35.0L331.0,35.0C334.9,35.0,338.0,31.9,338.0,28.0z" stroke-width="1" stroke="#101843"/><text style="fill:#191919;font-family:微软雅黑;font-size:10.00pt" xml:space="preserve"><tspan x="25.0" y="23.0">飞行任务算法运行: _current_task.task->update()</tspan></text></g><g id="shape59" transform="translate(515.461000,1547.000000)"><path fill-rule="nonzero" fill="#ffffff" d="M338.0,28.0L338.0,7.0C338.0,3.1,334.9,.0,331.0,.0L7.0,.0C3.1,.0,.0,3.1,.0,7.0L.0,28.0C.0,31.9,3.1,35.0,7.0,35.0L331.0,35.0C334.9,35.0,338.0,31.9,338.0,28.0z" stroke-width="1" stroke="#101843"/><text style="fill:#191919;font-family:微软雅黑;font-size:10.00pt" xml:space="preserve"><tspan x="17.0" y="23.0">setpoint限幅: _current_task.task->updateFinalize()</tspan></text></g><g id="shape60" transform="translate(492.210000,1613.000000)"><path fill-rule="nonzero" fill="#ffffff" d="M384.5,28.0L384.5,7.0C384.5,3.1,381.4,.0,377.5,.0L7.0,.0C3.1,.0,.0,3.1,.0,7.0L.0,28.0C.0,31.9,3.1,35.0,7.0,35.0L377.5,35.0C381.4,35.0,384.5,31.9,384.5,28.0z" stroke-width="1" stroke="#101843"/><text style="fill:#191919;font-family:微软雅黑;font-size:10.00pt" xml:space="preserve"><tspan x="22.8" y="23.0">发布setpoint: _trajectory_setpoint_pub.publish(setpoint)</tspan></text></g><g id="shape61" transform="translate(217.500000,1390.500000)"><text style="fill:#191919;font-family:微软雅黑;font-size:10.00pt" xml:space="preserve"><tspan x="54.0" y="30.8">FlightModeManager::</tspan><tspan x="10.0" y="49.8">generateTrajectorySetpoint()</tspan></text></g><g id="shape62" transform="translate(684.479000,1370.500000)"><path fill="none" d="M.0,.0L.0,39.0" stroke-width="1" stroke="#191919"/><path fill="#191919" d="M3.0,39.0L.0,45.0L-3.0,39.0L3.0,39.0" stroke-width="1" stroke-linecap="round" stroke="#191919"/></g><g id="shape63" transform="translate(684.000000,1450.000000)"><path fill="none" d="M.0,.0L.0,25.0" stroke-width="1" stroke="#191919"/><path fill="#191919" d="M3.0,25.0L.0,31.0L-3.0,25.0L3.0,25.0" stroke-width="1" stroke-linecap="round" stroke="#191919"/></g><g id="shape64" transform="translate(684.000000,1582.000000)"><path fill="none" d="M.0,.0L.0,25.0" stroke-width="1" stroke="#191919"/><path fill="#191919" d="M3.0,25.0L.0,31.0L-3.0,25.0L3.0,25.0" stroke-width="1" stroke-linecap="round" stroke="#191919"/></g><g id="shape65" transform="translate(684.000000,1516.000000)"><path fill="none" d="M.0,.0L.0,25.0" stroke-width="1" stroke="#191919"/><path fill="#191919" d="M3.0,25.0L.0,31.0L-3.0,25.0L3.0,25.0" stroke-width="1" stroke-linecap="round" stroke="#191919"/></g><g id="shape66" transform="translate(428.750000,94.500000)"><path fill-rule="nonzero" fill="#ffffff" d="M209.5,24.0L209.5,7.0C209.5,3.1,206.4,.0,202.5,.0L7.0,.0C3.1,.0,.0,3.1,.0,7.0L.0,24.0C.0,27.9,3.1,31.0,7.0,31.0L202.5,31.0C206.4,31.0,209.5,27.9,209.5,24.0z" stroke-width="1" stroke="#101843"/><text style="fill:#191919;font-family:微软雅黑;font-size:10.00pt" xml:space="preserve"><tspan x="6.8" y="21.0">vehicle_local_position消息已更新</tspan></text></g><g id="shape67" transform="translate(267.000000,60.000000)"><text style="fill:#191919;font-family:微软雅黑;font-size:10.00pt" xml:space="preserve"><tspan x="7.0" y="23.0">FlightModeManager::</tspan><tspan x="87.0" y="42.0">update()</tspan></text></g><g id="shape68" transform="translate(533.500000,125.500000)"><path fill="none" d="M.0,.0L.0,150.4" stroke-width="1" stroke="#191919"/><path fill="#191919" d="M3.0,150.4L.0,156.4L-3.0,150.4L3.0,150.4" stroke-width="1" stroke-linecap="round" stroke="#191919"/></g><g id="shape69" transform="translate(694.000000,68.500000)"><path fill-rule="nonzero" fill="#ffffff" d="M271.5,104.5L271.5,7.0C271.5,3.1,268.4,.0,264.5,.0L7.0,.0C3.1,.0,.0,3.1,.0,7.0L.0,104.5C.0,108.4,3.1,111.5,7.0,111.5L264.5,111.5C268.4,111.5,271.5,108.4,271.5,104.5z" stroke-width="1" stroke="#101843"/><text style="fill:#191919;font-family:微软雅黑;font-size:10.00pt" xml:space="preserve"><tspan x="4.3" y="23.3">消息更新：</tspan><tspan x="4.3" y="42.3">_home_position_sub.update()</tspan><tspan x="4.3" y="61.3">_vehicle_control_mode_sub.update()</tspan><tspan x="4.3" y="80.3">_vehicle_land_detected_sub.update()</tspan><tspan x="4.3" y="99.3">_vehicle_status_sub.update()</tspan></text></g><g id="shape70" transform="translate(639.000000,110.000000)"><path fill="none" d="M.0,.0L26.0,.0L26.0,13.0L49.0,13.0" stroke-width="1" stroke="#191919"/><path fill="#191919" d="M49.0,10.0L55.0,13.0L49.0,16.0L49.0,10.0" stroke-width="1" stroke-linecap="round" stroke="#191919"/></g><g id="shape71" transform="translate(849.229000,1044.000000)"><path fill-rule="nonzero" fill="#ffffff" d="M68.5,44.9L137.0,22.5L68.5,.0L.0,22.5L68.5,44.9z" stroke-width="1" stroke="#101843"/><text style="fill:#191919;font-family:微软雅黑;font-size:10.00pt" xml:space="preserve"><tspan x="29.5" y="18.5">当前已经存在</tspan><tspan x="42.5" y="37.5">飞行任务</tspan></text></g><g id="shape72" transform="translate(808.000000,1133.937500)"><path fill-rule="nonzero" fill="#ffffff" d="M219.5,28.0L219.5,7.0C219.5,3.1,216.3,.0,212.5,.0L7.0,.0C3.1,.0,.0,3.1,.0,7.0L.0,28.0C.0,31.9,3.1,35.0,7.0,35.0L212.5,35.0C216.3,35.0,219.5,31.9,219.5,28.0z" stroke-width="1" stroke="#101843"/><text style="fill:#191919;font-family:微软雅黑;font-size:10.00pt" xml:space="preserve"><tspan x="83.7" y="13.5">调用析构</tspan><tspan x="7.2" y="32.5">_current_task.task->~FlightTask()</tspan></text></g><g id="shape73" transform="translate(799.994000,1120.000000)"><path fill="none" d="M.0,.0L28.0,.0L28.0,-90.0L117.7,-90.0L117.7,-82.0" stroke-width="1" stroke="#191919"/><path fill="#191919" d="M120.7,-82.0L117.7,-76.0L114.7,-82.0L120.7,-82.0" stroke-width="1" stroke-linecap="round" stroke="#191919"/></g><g id="shape74" transform="translate(917.729000,1088.937500)"><path fill="none" d="M.0,.0L.0,39.0" stroke-width="1" stroke="#191919"/><path fill="#191919" d="M3.0,39.0L.0,45.0L-3.0,39.0L3.0,39.0" stroke-width="1" stroke-linecap="round" stroke="#191919"/><rect width="13.0" fill="#ffffff" height="19.0" x="-5.5" y="13.0"/><text style="fill:#191919;font-family:微软雅黑;font-size:10.00pt" xml:space="preserve"><tspan x="-5.5" y="28.0">是</tspan></text></g><g id="shape75" transform="translate(917.729000,1168.937500)"><path fill="none" d="M.0,.0L.0,21.0L-112.7,21.0" stroke-width="1" stroke="#191919"/><path fill="#191919" d="M-112.7,24.0L-118.7,21.0L-112.7,18.0L-112.7,24.0" stroke-width="1" stroke-linecap="round" stroke="#191919"/></g></g></svg>