<svg xmlns:xlink="http://www.w3.org/1999/xlink" viewBox="0 0 743 417" xmlns="http://www.w3.org/2000/svg" width="743" height="417"><defs/><g transform="translate(-263.00,-150.50)"><g transform="translate(264.000000,151.500000)" id="shape1"><path stroke-width="1" fill="#ffffff" stroke="#101843" fill-rule="nonzero" d="M208.0,220.0L208.0,7.0C208.0,3.1,204.9,.0,201.0,.0L7.0,.0C3.1,.0,.0,3.1,.0,7.0L.0,220.0C.0,223.9,3.1,227.0,7.0,227.0L201.0,227.0C204.9,227.0,208.0,223.9,208.0,220.0z"/><text xml:space="preserve" style="fill:#191919;font-family:微软雅黑;font-size:12.00pt;font-weight:bold"><tspan x="62.0" y="218.0">FlightTask</tspan></text></g><g transform="translate(713.000000,199.850394)" id="shape2"><path stroke-width="1" fill="#ffffff" stroke="#101843" fill-rule="nonzero" d="M208.0,220.0L208.0,7.0C208.0,3.1,204.9,.0,201.0,.0L7.0,.0C3.1,.0,.0,3.1,.0,7.0L.0,220.0C.0,223.9,3.1,227.0,7.0,227.0L201.0,227.0C204.9,227.0,208.0,223.9,208.0,220.0z"/><text xml:space="preserve" style="fill:#191919;font-family:微软雅黑;font-size:12.00pt;font-weight:bold"><tspan x="21.5" y="21.0">FlightModeManager</tspan></text></g><g transform="translate(456.333333,233.000000)" id="shape3"><path stroke-width="1" fill="none" stroke="#191919" d="M.0,.0C34.1,.7,68.2,1.4,97.5,8.2C126.7,14.9,151.0,27.8,180.2,34.5C208.3,41.0,240.8,41.9,273.6,42.6"/><path stroke-linecap="round" stroke-width="1" fill="#191919" stroke="#191919" d="M271.7,39.6L277.7,42.7L271.6,45.6L271.7,39.6"/><rect fill="#ffffff" x="35.7" width="196.0" y="9.6" height="19.0"/><text xml:space="preserve" style="fill:#191919;font-family:微软雅黑;font-size:10.00pt"><tspan x="35.7" y="24.6">FlightTask::getPositionSetpoint()</tspan></text></g><g transform="translate(734.000000,343.000000)" id="shape4"><path stroke-width="1" fill="#ffffff" stroke="#101843" fill-rule="nonzero" d="M166.0,53.0L166.0,7.0C166.0,3.1,162.9,.0,159.0,.0L7.0,.0C3.1,.0,.0,3.1,.0,7.0L.0,53.0C.0,56.9,3.1,60.0,7.0,60.0L159.0,60.0C162.9,60.0,166.0,56.9,166.0,53.0z"/><text xml:space="preserve" style="fill:#191919;font-family:微软雅黑;font-size:10.00pt"><tspan x="7.5" y="35.5">_trajectory_setpoint_pub</tspan></text></g><g transform="translate(279.666667,180.000000)" id="shape5"><path stroke-width="1" fill="#ffffff" stroke="#101843" fill-rule="nonzero" d="M176.7,99.0L176.7,7.0C176.7,3.1,173.5,.0,169.7,.0L7.0,.0C3.1,.0,.0,3.1,.0,7.0L.0,99.0C.0,102.9,3.1,106.0,7.0,106.0L169.7,106.0C173.5,106.0,176.7,102.9,176.7,99.0z"/><text xml:space="preserve" style="fill:#191919;font-family:微软雅黑;font-size:10.00pt"><tspan x="4.3" y="30.0">_position_setpoint</tspan><tspan x="4.3" y="49.0">_velocity_setpoint</tspan><tspan x="4.3" y="68.0">_yaw_setpoint</tspan><tspan x="4.3" y="87.0">_yawspeed_setpoint</tspan></text></g><g transform="translate(734.000000,245.700787)" id="shape6"><path stroke-width="1" fill="#ffffff" stroke="#101843" fill-rule="nonzero" d="M166.0,53.0L166.0,7.0C166.0,3.1,162.9,.0,159.0,.0L7.0,.0C3.1,.0,.0,3.1,.0,7.0L.0,53.0C.0,56.9,3.1,60.0,7.0,60.0L159.0,60.0C162.9,60.0,166.0,56.9,166.0,53.0z"/><text xml:space="preserve" style="fill:#191919;font-family:微软雅黑;font-size:10.00pt"><tspan x="58.0" y="35.5">setpoint</tspan></text></g><g transform="translate(808.000000,473.500000)" id="shape7"><path stroke-width="1" fill="#ffffff" stroke="#101843" fill-rule="nonzero" d="M.0,46.5C.0,20.8,44.1,.0,98.5,.0C152.9,.0,197.0,20.8,197.0,46.5C197.0,72.2,152.9,93.0,98.5,93.0C44.1,93.0,.0,72.2,.0,46.5z"/><text xml:space="preserve" style="fill:#191919;font-family:微软雅黑;font-size:10.00pt"><tspan x="13.5" y="52.0">ORB_ID(trajectory_setpoint)</tspan></text></g><g transform="translate(817.000000,305.700787)" id="shape8"><path stroke-width="1" fill="none" stroke="#191919" d="M.0,.0C.0,2.1,.0,4.1,.0,9.3C.0,14.5,.0,22.8,.0,28.0C-0.0,29.7,-0.0,31.1,-0.0,32.3"/><path stroke-linecap="round" stroke-width="1" fill="#191919" stroke="#191919" d="M3.0,31.3L.0,37.3L-3.0,31.3L3.0,31.3"/></g><g transform="translate(817.000000,403.000000)" id="shape9"><path stroke-width="1" fill="none" stroke="#191919" d="M.0,.0C1.5,10.7,2.9,21.4,17.1,27.8C31.3,34.2,58.2,36.3,72.4,42.7C84.3,48.1,87.2,56.5,88.8,65.4"/><path stroke-linecap="round" stroke-width="1" fill="#191919" stroke="#191919" d="M91.6,64.1L89.5,70.5L85.7,65.0L91.6,64.1"/></g></g></svg>