<svg viewBox="0 0 1052 464" width="1052" height="464" xmlns:xlink="http://www.w3.org/1999/xlink" xmlns="http://www.w3.org/2000/svg"><defs/><g transform="translate(-65.00,-859.00)"><g transform="translate(603.460000,944.200000)" id="shape1"><path fill-rule="nonzero" stroke="#101843" stroke-width="1" d="M.0,30.0C.0,13.4,43.0,.0,96.0,.0C149.0,.0,192.0,13.4,192.0,30.0C192.0,46.6,149.0,60.0,96.0,60.0C43.0,60.0,.0,46.6,.0,30.0z" fill="#ffe2b3"/><text xml:space="preserve" style="fill:#191919;font-family:微软雅黑;font-size:10.00pt"><tspan y="35.5" x="11.0">ORB_ID(trajectory_setpoint)</tspan></text></g><g transform="translate(385.000000,989.000000)" id="shape2"><path fill-rule="nonzero" stroke="#101843" stroke-width="1" d="M146.0,80.6L146.0,7.0C146.0,3.1,142.9,.0,139.0,.0L7.0,.0C3.1,.0,.0,3.1,.0,7.0L.0,80.6C.0,84.5,3.1,87.6,7.0,87.6L139.0,87.6C142.9,87.6,146.0,84.5,146.0,80.6z" fill="#ffffff"/><text xml:space="preserve" style="fill:#191919;font-family:微软雅黑;font-size:10.00pt"><tspan y="49.3" x="22.5">mavlink_receiver</tspan></text></g><g transform="translate(531.000000,1032.800000)" id="shape3"><path stroke="#191919" stroke-width="1" d="M.0,.0C8.9,-1.0,17.8,-1.9,25.4,-11.2C33.1,-20.5,39.4,-38.1,47.0,-47.4C53.2,-54.9,60.2,-57.0,67.4,-58.0" fill="none"/><path stroke="#191919" stroke-width="1" stroke-linecap="round" d="M66.1,-60.9L72.5,-58.6L66.9,-54.9L66.1,-60.9" fill="#191919"/></g><g transform="translate(867.920000,879.000000)" id="shape4"><path fill-rule="nonzero" stroke="#101843" stroke-width="1" d="M192.0,66.2L192.0,7.0C192.0,3.1,188.9,.0,185.0,.0L7.0,.0C3.1,.0,.0,3.1,.0,7.0L.0,66.2C.0,70.1,3.1,73.2,7.0,73.2L185.0,73.2C188.9,73.2,192.0,70.1,192.0,66.2z" fill="#ffffff"/><text xml:space="preserve" style="fill:#191919;font-family:微软雅黑;font-size:10.00pt"><tspan y="33.0" x="15.0">FixedwingPositionControl::</tspan><tspan y="52.0" x="70.5">update()</tspan></text></g><g transform="translate(867.920000,1004.200000)" id="shape5"><path fill-rule="nonzero" stroke="#101843" stroke-width="1" d="M192.0,66.2L192.0,7.0C192.0,3.1,188.9,.0,185.0,.0L7.0,.0C3.1,.0,.0,3.1,.0,7.0L.0,66.2C.0,70.1,3.1,73.2,7.0,73.2L185.0,73.2C188.9,73.2,192.0,70.1,192.0,66.2z" fill="#ffffff"/><text xml:space="preserve" style="fill:#191919;font-family:微软雅黑;font-size:10.00pt"><tspan y="33.0" x="9.5">MulticopterPositionControl::</tspan><tspan y="52.0" x="70.5">update()</tspan></text></g><g transform="translate(795.460000,974.200000)" id="shape6"><path stroke="#191919" stroke-width="1" d="M.0,.0C8.9,-1.0,17.8,-1.9,25.4,-11.2C33.1,-20.5,39.4,-38.1,47.0,-47.4C53.2,-54.9,60.2,-57.0,67.4,-58.0" fill="none"/><path stroke="#191919" stroke-width="1" stroke-linecap="round" d="M66.1,-60.9L72.5,-58.6L66.9,-54.9L66.1,-60.9" fill="#191919"/></g><g transform="translate(795.460000,974.200000)" id="shape7"><path stroke="#191919" stroke-width="1" d="M.0,.0C8.9,1.1,17.8,2.2,25.4,12.7C33.1,23.3,39.4,43.3,47.0,53.9C53.2,62.5,60.3,64.8,67.5,65.9" fill="none"/><path stroke="#191919" stroke-width="1" stroke-linecap="round" d="M66.9,62.8L72.5,66.6L66.1,68.8L66.9,62.8" fill="#191919"/></g><g transform="translate(603.460000,1098.300000)" id="shape8"><path fill-rule="nonzero" stroke="#101843" stroke-width="1" d="M.0,35.0C.0,15.7,48.3,.0,107.8,.0C167.3,.0,215.5,15.7,215.5,35.0C215.5,54.3,167.3,70.0,107.8,70.0C48.3,70.0,.0,54.3,.0,35.0z" fill="#ffe2b3"/><text xml:space="preserve" style="fill:#191919;font-family:微软雅黑;font-size:10.00pt"><tspan y="40.5" x="7.8">ORB_ID(offboard_control_mode)</tspan></text></g><g transform="translate(531.000000,1032.800000)" id="shape9"><path stroke="#191919" stroke-width="1" d="M.0,.0C11.9,1.7,23.8,3.3,29.9,19.2C36.0,35.2,36.4,65.3,42.6,81.3C47.9,95.1,57.6,98.2,67.9,99.8" fill="none"/><path stroke="#191919" stroke-width="1" stroke-linecap="round" d="M67.0,96.7L72.5,100.5L66.1,102.6L67.0,96.7" fill="#191919"/></g><g transform="translate(867.920000,1132.500000)" id="shape10"><path fill-rule="nonzero" stroke="#101843" stroke-width="1" d="M192.0,66.2L192.0,7.0C192.0,3.1,188.9,.0,185.0,.0L7.0,.0C3.1,.0,.0,3.1,.0,7.0L.0,66.2C.0,70.1,3.1,73.2,7.0,73.2L185.0,73.2C188.9,73.2,192.0,70.1,192.0,66.2z" fill="#ffffff"/><text xml:space="preserve" style="fill:#191919;font-family:微软雅黑;font-size:10.00pt"><tspan y="33.0" x="55.0">Commander::</tspan><tspan y="52.0" x="15.5">offboard_control_update()</tspan></text></g><g transform="translate(66.000000,997.800000)" id="shape11"><path fill-rule="nonzero" stroke="#101843" stroke-width="1" d="M.0,35.0C.0,15.7,63.2,.0,141.3,.0C219.3,.0,282.5,15.7,282.5,35.0C282.5,54.3,219.3,70.0,141.3,70.0C63.2,70.0,.0,54.3,.0,35.0z" fill="#89a3fe"/><text xml:space="preserve" style="fill:#191919;font-family:微软雅黑;font-size:10.00pt"><tspan y="40.5" x="4.8">SET_POSITION_TARGET_LOCAL_NED ( #84 )</tspan></text></g><g transform="translate(348.540000,1032.800000)" id="shape12"><path stroke="#191919" stroke-width="1" d="M.0,.0L30.5,.0" fill="none"/><path stroke="#191919" stroke-width="1" stroke-linecap="round" d="M30.5,-3.0L36.5,.0L30.5,3.0L30.5,-3.0" fill="#191919"/></g><g transform="translate(66.000000,860.000000)" id="shape13"><path fill-rule="nonzero" stroke="#101843" stroke-width="1" d="M146.0,80.6L146.0,7.0C146.0,3.1,142.9,.0,139.0,.0L7.0,.0C3.1,.0,.0,3.1,.0,7.0L.0,80.6C.0,84.5,3.1,87.6,7.0,87.6L139.0,87.6C142.9,87.6,146.0,84.5,146.0,80.6z" fill="#ffffff"/><text xml:space="preserve" style="fill:#191919;font-family:微软雅黑;font-size:10.00pt"><tspan y="40.0" x="47.0">onboard</tspan><tspan y="59.0" x="43.0">computer</tspan></text></g><g transform="translate(139.000000,947.600000)" id="shape14"><path stroke="#191919" stroke-width="1" d="M.0,.0C1.1,8.1,2.2,16.2,13.1,20.5C23.9,24.8,44.4,25.4,55.2,29.7C63.9,33.1,66.3,39.0,67.5,45.4" fill="none"/><path stroke="#191919" stroke-width="1" stroke-linecap="round" d="M70.3,43.8L68.3,50.2L64.4,44.7L70.3,43.8" fill="#191919"/></g><g transform="translate(819.000000,1133.300000)" id="shape15"><path stroke="#191919" stroke-width="1" d="M.0,.0C6.0,.6,12.0,1.2,17.2,6.8C22.3,12.5,26.6,23.3,31.8,29.0C35.3,32.9,39.4,34.4,43.5,35.1" fill="none"/><path stroke="#191919" stroke-width="1" stroke-linecap="round" d="M43.3,32.1L48.9,35.8L42.6,38.0L43.3,32.1" fill="#191919"/></g><g transform="translate(856.150000,1252.000000)" id="shape16"><path fill-rule="nonzero" stroke="#101843" stroke-width="1" d="M.0,35.0C.0,15.7,48.3,.0,107.8,.0C167.3,.0,215.5,15.7,215.5,35.0C215.5,54.3,167.3,70.0,107.8,70.0C48.3,70.0,.0,54.3,.0,35.0z" fill="#ffe2b3"/><text xml:space="preserve" style="fill:#191919;font-family:微软雅黑;font-size:10.00pt"><tspan y="40.5" x="13.8">ORB_ID(vehicle_control_mode)</tspan></text></g><g transform="translate(963.920000,1205.700000)" id="shape17"><path stroke="#191919" stroke-width="1" d="M.0,.0C.0,2.6,.0,5.1,.0,11.6C.0,18.0,.0,28.3,.0,34.7C-0.0,37.4,-0.0,39.4,-0.0,41.0" fill="none"/><path stroke="#191919" stroke-width="1" stroke-linecap="round" d="M3.0,40.3L.0,46.3L-3.0,40.3L3.0,40.3" fill="#191919"/></g><g transform="translate(1071.690000,1287.000000)" id="shape18"><path stroke="#191919" stroke-width="1" d="M.0,.0C14.9,-38.8,29.7,-77.6,36.4,-120.1C43.1,-162.6,41.7,-208.8,32.3,-251.3C23.2,-292.3,6.7,-330.0,-10.0,-367.5" fill="none"/><path stroke="#191919" stroke-width="1" stroke-linecap="round" d="M-12.1,-364.7L-11.8,-371.4L-6.6,-367.1L-12.1,-364.7" fill="#191919"/></g><g transform="translate(1071.690000,1287.000000)" id="shape19"><path stroke="#191919" stroke-width="1" d="M.0,.0C10.0,-25.7,20.1,-51.5,24.4,-79.6C28.7,-107.8,27.2,-138.4,20.2,-166.6C13.6,-193.1,2.2,-217.5,-9.6,-241.7" fill="none"/><path stroke="#191919" stroke-width="1" stroke-linecap="round" d="M-11.8,-239.5L-11.8,-246.2L-6.5,-242.1L-11.8,-239.5" fill="#191919"/></g></g></svg>