<svg width="982" height="246" viewBox="0 0 982 246" xmlns="http://www.w3.org/2000/svg" xmlns:xlink="http://www.w3.org/1999/xlink"><defs/><g transform="translate(-77.00,-123.20)"><g transform="translate(101.230000,263.800000)" id="shape1"><path fill-rule="nonzero" stroke="#101843" fill="#89a3fe" stroke-width="1" d="M.0,35.0C.0,15.7,55.6,.0,124.3,.0C192.9,.0,248.5,15.7,248.5,35.0C248.5,54.3,192.9,70.0,124.3,70.0C55.6,70.0,.0,54.3,.0,35.0z"/><text style="fill:#191919;font-family:微软雅黑;font-size:10.00pt" xml:space="preserve"><tspan y="40.5" x="5.8">VEHICLE_CMD_DO_SET_MODE ( 176 )</tspan></text></g><g transform="translate(78.000000,124.200000)" id="shape2"><path fill-rule="nonzero" stroke="#101843" fill="#ffffff" stroke-width="1" d="M146.0,80.6L146.0,7.0C146.0,3.1,142.9,.0,139.0,.0L7.0,.0C3.1,.0,.0,3.1,.0,7.0L.0,80.6C.0,84.5,3.1,87.6,7.0,87.6L139.0,87.6C142.9,87.6,146.0,84.5,146.0,80.6z"/><text style="fill:#191919;font-family:微软雅黑;font-size:10.00pt" xml:space="preserve"><tspan y="40.0" x="47.0">onboard</tspan><tspan y="59.0" x="43.0">computer</tspan></text></g><g transform="translate(409.000000,255.000000)" id="shape3"><path fill-rule="nonzero" stroke="#101843" fill="#ffffff" stroke-width="1" d="M146.0,80.6L146.0,7.0C146.0,3.1,142.9,.0,139.0,.0L7.0,.0C3.1,.0,.0,3.1,.0,7.0L.0,80.6C.0,84.5,3.1,87.6,7.0,87.6L139.0,87.6C142.9,87.6,146.0,84.5,146.0,80.6z"/><text style="fill:#191919;font-family:微软雅黑;font-size:10.00pt" xml:space="preserve"><tspan y="49.3" x="22.5">mavlink_receiver</tspan></text></g><g transform="translate(349.770000,298.800000)" id="shape4"><path stroke="#191919" stroke-width="1" fill="none" d="M.0,.0L53.2,.0"/><path stroke="#191919" stroke-width="1" fill="#191919" stroke-linecap="round" d="M53.2,-3.0L59.2,.0L53.2,3.0L53.2,-3.0"/></g><g transform="translate(619.080000,268.800000)" id="shape5"><path fill-rule="nonzero" stroke="#101843" fill="#ffecd1" stroke-width="1" d="M.0,30.0C.0,13.4,43.0,.0,96.0,.0C149.0,.0,192.0,13.4,192.0,30.0C192.0,46.6,149.0,60.0,96.0,60.0C43.0,60.0,.0,46.6,.0,30.0z"/><text style="fill:#191919;font-family:微软雅黑;font-size:10.00pt" xml:space="preserve"><tspan y="35.5" x="13.5">ORB_ID(vehicle_command)</tspan></text></g><g transform="translate(555.000000,298.800000)" id="shape6"><path stroke="#191919" stroke-width="1" fill="none" d="M.0,.0L58.1,.0"/><path stroke="#191919" stroke-width="1" fill="#191919" stroke-linecap="round" d="M58.1,-3.0L64.1,.0L58.1,3.0L58.1,-3.0"/></g><g transform="translate(151.000000,211.800000)" id="shape7"><path stroke="#191919" stroke-width="1" fill="none" d="M.0,.0C1.2,8.8,2.4,17.6,14.3,21.8C26.1,26.1,48.4,25.9,60.2,30.2C70.1,33.7,72.6,40.5,73.9,47.8"/><path stroke="#191919" stroke-width="1" fill="#191919" stroke-linecap="round" d="M76.6,45.6L74.5,52.0L70.6,46.5L76.6,45.6"/></g><g transform="translate(866.000000,294.600000)" id="shape8"><path fill-rule="nonzero" stroke="#101843" fill="#ffffff" stroke-width="1" d="M192.0,66.2L192.0,7.0C192.0,3.1,188.9,.0,185.0,.0L7.0,.0C3.1,.0,.0,3.1,.0,7.0L.0,66.2C.0,70.1,3.1,73.2,7.0,73.2L185.0,73.2C188.9,73.2,192.0,70.1,192.0,66.2z"/><text style="fill:#191919;font-family:微软雅黑;font-size:10.00pt" xml:space="preserve"><tspan y="33.0" x="55.0">Commander::</tspan><tspan y="52.0" x="37.5">handle_command()</tspan></text></g><g transform="translate(811.080000,298.800000)" id="shape9"><path stroke="#191919" stroke-width="1" fill="none" d="M.0,.0C6.7,.5,13.5,1.1,19.3,6.2C25.1,11.3,29.9,21.1,35.6,26.2C40.2,30.2,45.3,31.4,50.5,32.0"/><path stroke="#191919" stroke-width="1" fill="#191919" stroke-linecap="round" d="M49.2,28.9L54.9,32.4L48.7,34.9L49.2,28.9"/></g></g></svg>