<svg viewBox="0 0 1122 468" width="1122" height="468" xmlns:xlink="http://www.w3.org/1999/xlink" xmlns="http://www.w3.org/2000/svg"><defs/><g transform="translate(-65.00,-1309.50)"><path fill-rule="nonzero" stroke="#101843" transform="translate(603.460000,1310.500000)" stroke-dasharray="6,4" stroke-width="1" d="M582.5,177.5L582.5,.0L.0,.0L.0,177.5L582.5,177.5z" id="shape1" fill="#ffffff"/><g transform="translate(640.540000,1337.350000)" id="shape2"><path fill-rule="nonzero" stroke="#101843" stroke-width="1" d="M.0,30.0C.0,13.4,56.0,.0,125.1,.0C194.2,.0,250.2,13.4,250.2,30.0C250.2,46.6,194.2,60.0,125.1,60.0C56.0,60.0,.0,46.6,.0,30.0z" fill="#ffe2b3"/><text xml:space="preserve" style="fill:#191919;font-family:微软雅黑;font-size:10.00pt"><tspan y="35.5" x="11.1">ORB_ID(mc_virtual_attitude_setpoint)</tspan></text></g><g transform="translate(403.000000,1488.900000)" id="shape3"><path fill-rule="nonzero" stroke="#101843" stroke-width="1" d="M146.0,80.6L146.0,7.0C146.0,3.1,142.9,.0,139.0,.0L7.0,.0C3.1,.0,.0,3.1,.0,7.0L.0,80.6C.0,84.5,3.1,87.6,7.0,87.6L139.0,87.6C142.9,87.6,146.0,84.5,146.0,80.6z" fill="#ffffff"/><text xml:space="preserve" style="fill:#191919;font-family:微软雅黑;font-size:10.00pt"><tspan y="49.3" x="22.5">mavlink_receiver</tspan></text></g><g transform="translate(970.000000,1508.700000)" id="shape4"><path fill-rule="nonzero" stroke="#101843" stroke-width="1" d="M192.0,66.2L192.0,7.0C192.0,3.1,188.9,.0,185.0,.0L7.0,.0C3.1,.0,.0,3.1,.0,7.0L.0,66.2C.0,70.1,3.1,73.2,7.0,73.2L185.0,73.2C188.9,73.2,192.0,70.1,192.0,66.2z" fill="#ffffff"/><text xml:space="preserve" style="fill:#191919;font-family:微软雅黑;font-size:10.00pt"><tspan y="33.0" x="49.0">fw_att_control::</tspan><tspan y="52.0" x="70.5">update()</tspan></text></g><g transform="translate(970.000000,1352.250000)" id="shape5"><path fill-rule="nonzero" stroke="#101843" stroke-width="1" d="M192.0,66.2L192.0,7.0C192.0,3.1,188.9,.0,185.0,.0L7.0,.0C3.1,.0,.0,3.1,.0,7.0L.0,66.2C.0,70.1,3.1,73.2,7.0,73.2L185.0,73.2C188.9,73.2,192.0,70.1,192.0,66.2z" fill="#ffffff"/><text xml:space="preserve" style="fill:#191919;font-family:微软雅黑;font-size:10.00pt"><tspan y="33.0" x="45.0">vtol_att_control::</tspan><tspan y="52.0" x="70.5">update()</tspan></text></g><g transform="translate(649.540000,1674.200000)" id="shape6"><path fill-rule="nonzero" stroke="#101843" stroke-width="1" d="M.0,35.0C.0,15.7,48.3,.0,107.8,.0C167.3,.0,215.5,15.7,215.5,35.0C215.5,54.3,167.3,70.0,107.8,70.0C48.3,70.0,.0,54.3,.0,35.0z" fill="#ffe2b3"/><text xml:space="preserve" style="fill:#191919;font-family:微软雅黑;font-size:10.00pt"><tspan y="40.5" x="7.8">ORB_ID(offboard_control_mode)</tspan></text></g><g transform="translate(970.000000,1702.800000)" id="shape7"><path fill-rule="nonzero" stroke="#101843" stroke-width="1" d="M192.0,66.2L192.0,7.0C192.0,3.1,188.9,.0,185.0,.0L7.0,.0C3.1,.0,.0,3.1,.0,7.0L.0,66.2C.0,70.1,3.1,73.2,7.0,73.2L185.0,73.2C188.9,73.2,192.0,70.1,192.0,66.2z" fill="#ffffff"/><text xml:space="preserve" style="fill:#191919;font-family:微软雅黑;font-size:10.00pt"><tspan y="33.0" x="55.0">Commander::</tspan><tspan y="52.0" x="15.5">offboard_control_update()</tspan></text></g><g transform="translate(100.000000,1497.700000)" id="shape8"><path fill-rule="nonzero" stroke="#101843" stroke-width="1" d="M.0,35.0C.0,15.7,55.6,.0,124.3,.0C192.9,.0,248.5,15.7,248.5,35.0C248.5,54.3,192.9,70.0,124.3,70.0C55.6,70.0,.0,54.3,.0,35.0z" fill="#89a3fe"/><text xml:space="preserve" style="fill:#191919;font-family:微软雅黑;font-size:10.00pt"><tspan y="40.5" x="30.8">SET_ATTITUDE_TARGET ( #82 )</tspan></text></g><g transform="translate(348.540000,1532.700000)" id="shape9"><path stroke="#191919" stroke-width="1" d="M.0,.0L48.5,.0" fill="none"/><path stroke="#191919" stroke-width="1" stroke-linecap="round" d="M48.5,-3.0L54.5,.0L48.5,3.0L48.5,-3.0" fill="#191919"/></g><g transform="translate(66.000000,1361.200000)" id="shape10"><path fill-rule="nonzero" stroke="#101843" stroke-width="1" d="M146.0,80.6L146.0,7.0C146.0,3.1,142.9,.0,139.0,.0L7.0,.0C3.1,.0,.0,3.1,.0,7.0L.0,80.6C.0,84.5,3.1,87.6,7.0,87.6L139.0,87.6C142.9,87.6,146.0,84.5,146.0,80.6z" fill="#ffffff"/><text xml:space="preserve" style="fill:#191919;font-family:微软雅黑;font-size:10.00pt"><tspan y="40.0" x="47.0">onboard</tspan><tspan y="59.0" x="43.0">computer</tspan></text></g><g transform="translate(640.540000,1412.650000)" id="shape11"><path fill-rule="nonzero" stroke="#101843" stroke-width="1" d="M.0,30.0C.0,13.4,56.0,.0,125.1,.0C194.2,.0,250.2,13.4,250.2,30.0C250.2,46.6,194.2,60.0,125.1,60.0C56.0,60.0,.0,46.6,.0,30.0z" fill="#ffe2b3"/><text xml:space="preserve" style="fill:#191919;font-family:微软雅黑;font-size:10.00pt"><tspan y="35.5" x="13.1">ORB_ID(fw_virtual_attitude_setpoint)</tspan></text></g><g transform="translate(649.540000,1550.000000)" id="shape12"><path fill-rule="nonzero" stroke="#101843" stroke-width="1" d="M.0,30.0C.0,13.4,56.0,.0,125.1,.0C194.2,.0,250.2,13.4,250.2,30.0C250.2,46.6,194.2,60.0,125.1,60.0C56.0,60.0,.0,46.6,.0,30.0z" fill="#ffe2b3"/><text xml:space="preserve" style="fill:#191919;font-family:微软雅黑;font-size:10.00pt"><tspan y="35.5" x="21.6">ORB_ID(vehicle_attitude_setpoint)</tspan></text></g><g transform="translate(549.000000,1532.700000)" id="shape13"><path stroke="#191919" stroke-width="1" d="M.0,.0C20.4,2.9,40.9,5.8,47.4,33.8C54.0,61.7,46.6,114.8,53.1,142.7C59.1,168.3,76.6,172.9,95.2,175.7" fill="none"/><path stroke="#191919" stroke-width="1" stroke-linecap="round" d="M95.0,172.7L100.5,176.5L94.2,178.6L95.0,172.7" fill="#191919"/></g><g transform="translate(865.080000,1709.200000)" id="shape14"><path stroke="#191919" stroke-width="1" d="M.0,.0C12.9,.5,25.8,1.0,36.8,5.8C47.9,10.6,57.1,19.6,68.1,24.4C77.7,28.6,88.7,29.5,99.9,30.0" fill="none"/><path stroke="#191919" stroke-width="1" stroke-linecap="round" d="M99.0,27.0L104.9,30.2L98.8,33.0L99.0,27.0" fill="#191919"/></g><g transform="translate(549.000000,1532.700000)" id="shape15"><path stroke="#191919" stroke-width="1" d="M.0,.0C12.4,.8,24.7,1.6,35.3,9.0C45.9,16.5,54.7,30.8,65.3,38.3C74.7,44.9,85.5,46.3,96.4,47.0" fill="none"/><path stroke="#191919" stroke-width="1" stroke-linecap="round" d="M94.7,43.9L100.5,47.3L94.4,49.9L94.7,43.9" fill="#191919"/></g><g transform="translate(549.000000,1532.700000)" id="shape16"><path stroke="#191919" stroke-width="1" d="M.0,.0C11.2,-1.5,22.5,-3.0,32.1,-17.2C41.8,-31.5,49.8,-58.6,59.4,-72.8C67.6,-85.0,77.0,-87.8,86.5,-89.3" fill="none"/><path stroke="#191919" stroke-width="1" stroke-linecap="round" d="M85.2,-92.2L91.5,-90.0L86.0,-86.2L85.2,-92.2" fill="#191919"/></g><g transform="translate(549.000000,1532.700000)" id="shape17"><path stroke="#191919" stroke-width="1" d="M.0,.0C12.4,-8.2,24.9,-16.5,32.0,-39.7C39.1,-62.9,40.9,-101.1,49.9,-122.1C58.3,-141.6,72.9,-146.4,88.0,-161.6" fill="none"/><path stroke="#191919" stroke-width="1" stroke-linecap="round" d="M85.2,-163.0L91.5,-165.3L89.6,-158.9L85.2,-163.0" fill="#191919"/></g><g transform="translate(890.730000,1367.350000)" id="shape18"><path stroke="#191919" stroke-width="1" d="M.0,.0C9.7,.4,19.5,.7,27.8,4.1C36.2,7.5,43.1,14.0,51.4,17.4C58.2,20.1,65.9,20.9,73.7,21.3" fill="none"/><path stroke="#191919" stroke-width="1" stroke-linecap="round" d="M73.4,18.3L79.3,21.5L73.2,24.3L73.4,18.3" fill="#191919"/></g><g transform="translate(890.730000,1442.650000)" id="shape19"><path stroke="#191919" stroke-width="1" d="M.0,.0C9.7,-0.9,19.5,-1.8,27.8,-10.3C36.2,-18.8,43.1,-35.0,51.4,-43.5C58.4,-50.7,66.4,-52.4,74.6,-53.3" fill="none"/><path stroke="#191919" stroke-width="1" stroke-linecap="round" d="M73.0,-56.2L79.3,-53.8L73.6,-50.2L73.0,-56.2" fill="#191919"/></g><g transform="translate(970.000000,1604.200000)" id="shape20"><path fill-rule="nonzero" stroke="#101843" stroke-width="1" d="M192.0,66.2L192.0,7.0C192.0,3.1,188.9,.0,185.0,.0L7.0,.0C3.1,.0,.0,3.1,.0,7.0L.0,66.2C.0,70.1,3.1,73.2,7.0,73.2L185.0,73.2C188.9,73.2,192.0,70.1,192.0,66.2z" fill="#ffffff"/><text xml:space="preserve" style="fill:#191919;font-family:微软雅黑;font-size:10.00pt"><tspan y="33.0" x="9.0">MulticopterAttitudeControl::</tspan><tspan y="52.0" x="70.5">update()</tspan></text></g><g transform="translate(899.730000,1580.000000)" id="shape21"><path stroke="#191919" stroke-width="1" d="M.0,.0C8.6,-0.6,17.3,-1.1,24.7,-6.6C32.1,-12.1,38.2,-22.6,45.6,-28.1C51.6,-32.5,58.3,-33.7,65.2,-34.3" fill="none"/><path stroke="#191919" stroke-width="1" stroke-linecap="round" d="M64.1,-37.3L70.3,-34.7L64.5,-31.3L64.1,-37.3" fill="#191919"/></g><g transform="translate(899.730000,1580.000000)" id="shape22"><path stroke="#191919" stroke-width="1" d="M.0,.0C8.6,1.0,17.3,2.0,24.7,11.6C32.1,21.3,38.2,39.5,45.6,49.2C51.4,56.7,57.9,58.9,64.6,60.1" fill="none"/><path stroke="#191919" stroke-width="1" stroke-linecap="round" d="M64.7,57.0L70.3,60.8L63.9,63.0L64.7,57.0" fill="#191919"/></g><g transform="translate(139.000000,1448.800000)" id="shape23"><path stroke="#191919" stroke-width="1" d="M.0,.0C1.4,9.9,2.8,19.8,16.3,23.0C29.8,26.2,55.4,22.7,69.0,25.9C80.4,28.6,83.2,36.2,84.6,44.4" fill="none"/><path stroke="#191919" stroke-width="1" stroke-linecap="round" d="M87.3,42.5L85.3,48.9L81.4,43.4L87.3,42.5" fill="#191919"/></g></g></svg>